<?xml version="1.0" encoding="utf-8"?><svg xmlns="http://www.w3.org/2000/svg" xmlns:xlink="http://www.w3.org/1999/xlink"><symbol viewBox="0 0 86 86" fill="none" id="Group"><path d="M72.563 0H13.437a4.036 4.036 0 0 0-4.03 4.031V81.97A4.036 4.036 0 0 0 13.436 86h59.126a4.036 4.036 0 0 0 4.03-4.031V4.03A4.036 4.036 0 0 0 72.564 0zM13.437 2.688h59.126c.74 0 1.343.602 1.343 1.343v33.594H12.094V4.031c0-.74.603-1.343 1.344-1.343zm59.126 80.624H13.437c-.74 0-1.343-.602-1.343-1.343V40.313h61.812v41.656c0 .74-.603 1.344-1.344 1.344z" fill="#29497A"/><path d="M28.219 22.844a6.726 6.726 0 0 0 6.718-6.719v-1.344a6.726 6.726 0 0 0-6.718-6.719 6.726 6.726 0 0 0-6.719 6.72v1.343a6.726 6.726 0 0 0 6.719 6.719zm-4.032-8.063a4.036 4.036 0 0 1 4.032-4.031 4.036 4.036 0 0 1 4.031 4.031v1.344a4.036 4.036 0 0 1-4.031 4.031 4.036 4.036 0 0 1-4.032-4.031v-1.344zm-4.254 18.813H36.51a2.462 2.462 0 0 0 2.459-2.46V28.22c0-1.17-.545-2.479-1.458-3.502-1.053-1.18-2.44-1.83-3.905-1.83h-1.14c-.467 0-.9.243-1.145.64-.784 1.274-1.914 2.004-3.102 2.004s-2.319-.73-3.103-2.004a1.344 1.344 0 0 0-1.144-.64h-1.14c-3.02 0-5.363 2.866-5.363 5.332v2.91a2.467 2.467 0 0 0 2.464 2.465zm.223-5.375c0-.908 1.042-2.644 2.676-2.644h.431c1.271 1.69 3.043 2.644 4.956 2.644 1.913 0 3.684-.954 4.955-2.644h.432c1.633 0 2.675 1.736 2.675 2.644v2.687H20.156V28.22zM43 12.094h14.781a1.344 1.344 0 0 0 0-2.688H43a1.344 1.344 0 0 0 0 2.688zm0 10.75h4.031a1.344 1.344 0 0 0 0-2.688H43a1.344 1.344 0 0 0 0 2.688zm13.438-2.688h-4.032a1.344 1.344 0 0 0 0 2.688h4.032a1.344 1.344 0 0 0 0-2.688zm9.406 0h-4.031a1.344 1.344 0 0 0 0 2.688h4.03a1.344 1.344 0 0 0 0-2.688zM43 17.469h22.844a1.344 1.344 0 0 0 0-2.688H43a1.344 1.344 0 0 0 0 2.688zM18.813 47.031H21.5a1.344 1.344 0 1 0 0-2.687h-2.688a1.344 1.344 0 0 0 0 2.687zm48.375-2.687h-38.97a1.344 1.344 0 1 0 0 2.687h38.97a1.344 1.344 0 0 0 0-2.687zm-48.375 8.062H21.5a1.344 1.344 0 1 0 0-2.687h-2.688a1.344 1.344 0 0 0 0 2.687zm48.375-2.687h-38.97a1.344 1.344 0 1 0 0 2.687h38.97a1.344 1.344 0 0 0 0-2.687zm-16.125 8.062h-32.25a1.344 1.344 0 0 0 0 2.688h32.25a1.344 1.344 0 0 0 0-2.688zm-5.375 10.75H18.811a1.344 1.344 0 0 0 0 2.688h26.875a1.344 1.344 0 0 0 0-2.688zm-26.875-2.687h21.5a1.344 1.344 0 0 0 0-2.688h-21.5a1.344 1.344 0 0 0 0 2.688zm14.781 8.062H18.812a1.344 1.344 0 0 0 0 2.688h14.782a1.344 1.344 0 0 0 0-2.688zm33.594 0h-5.376a1.344 1.344 0 0 0 0 2.688h5.376a1.344 1.344 0 0 0 0-2.688zm0-5.375H64.5a1.344 1.344 0 0 0 0 2.688h2.688a1.344 1.344 0 0 0 0-2.688z" fill="#29497A"/><circle cx="50" cy="52" r="33" fill="#29497A" fill-opacity=".5"/></symbol><symbol viewBox="0 0 52 16" id="arrow"><path d="M51.707 8.707a1 1 0 0 0 0-1.414L45.343.929a1 1 0 1 0-1.414 1.414L49.586 8l-5.657 5.657a1 1 0 0 0 1.414 1.414l6.364-6.364zM0 9h51V7H0v2z"/></symbol><symbol viewBox="0 0 20 20" fill="none" id="chek"><rect x="1.5" y="1.5" width="17" height="17" rx="8.5" fill="#2369BA" fill-opacity=".22" stroke="#29497A" stroke-width="3"/></symbol><symbol viewBox="0 0 11 16" id="contacts-address"><path d="M5.501 0C2.463 0 0 2.417 0 5.4c0 1.525 1.515 4.258 1.515 4.258L5.298 16l3.948-6.268S11 7.124 11 5.399C11 2.417 8.538 0 5.501 0zm-.026 8.373c-1.74 0-3.149-1.392-3.149-3.113 0-1.719 1.409-3.11 3.15-3.11 1.738 0 3.15 1.391 3.15 3.11 0 1.72-1.412 3.113-3.15 3.113z"/></symbol><symbol viewBox="0 0 13 13" id="contacts-email"><path d="M1.863 11.177a6.322 6.322 0 0 0 2.128 1.341A7.68 7.68 0 0 0 6.733 13c1.112 0 2.138-.168 3.06-.513.836-.304.116-1.844-.498-1.592-.677.282-1.503.429-2.446.429a5.781 5.781 0 0 1-2.011-.335 4.386 4.386 0 0 1-1.535-.943 4.29 4.29 0 0 1-.995-1.487c-.244-.587-.36-1.257-.36-1.99 0-.692.116-1.352.35-1.939.232-.586.55-1.11.973-1.53a4.425 4.425 0 0 1 1.503-1.015 5.092 5.092 0 0 1 1.959-.367c.667 0 1.28.094 1.831.262a3.78 3.78 0 0 1 1.398.775c.392.346.699.765.92 1.268.223.503.33 1.09.33 1.76a4.6 4.6 0 0 1-.128 1.1c-.085.324-.19.618-.339.848-.137.22-.296.398-.487.524-.222.146-.55.23-.804.146-.318-.104-.254-.544-.233-.806.032-.356.127-.691.2-1.037.117-.566.244-1.121.36-1.676.064-.304.138-.618.202-.922a.634.634 0 0 0-.625-.765h-.465a.635.635 0 0 0-.615.461c-.031.126-.063.23-.063.23-.233-.712-1.09-.91-1.768-.9-.89.01-1.704.46-2.297 1.1-.053.062-.117.125-.17.188a4.03 4.03 0 0 0-.698 1.247c-.17.482-.254.974-.254 1.477 0 .43.063.838.18 1.204.127.378.306.702.54.975.232.272.529.492.878.65.35.156.741.24 1.165.24.317 0 .614-.052.878-.146a3.28 3.28 0 0 0 .688-.346c.16-.105.307-.23.424-.346.074.136.159.251.275.367.297.314.752.471 1.355.471a3.44 3.44 0 0 0 1.377-.283 3.258 3.258 0 0 0 1.153-.859c.318-.377.583-.838.773-1.382.19-.545.286-1.174.286-1.865 0-.943-.18-1.78-.53-2.483a5.199 5.199 0 0 0-1.418-1.77C10.47.954 9.792.608 9.041.367A7.132 7.132 0 0 0 6.733 0c-.921 0-1.8.168-2.615.492A6.844 6.844 0 0 0 1.98 1.865 6.356 6.356 0 0 0 .53 3.928 6.359 6.359 0 0 0 0 6.516c0 .932.159 1.812.487 2.598a5.908 5.908 0 0 0 1.376 2.063zm5.727-4.4c-.074.283-.18.556-.328.807a1.9 1.9 0 0 1-.56.597c-.213.147-.467.22-.784.22a.886.886 0 0 1-.477-.115.908.908 0 0 1-.307-.325 1.518 1.518 0 0 1-.169-.46 2.563 2.563 0 0 1-.053-.462c0-.293.042-.586.127-.89a2.74 2.74 0 0 1 .36-.796c.159-.23.339-.42.561-.566a1.18 1.18 0 0 1 .688-.199c.212 0 .381.032.508.105a.883.883 0 0 1 .307.283c.085.126.138.272.18.43.043.177.064.366.064.544-.01.262-.042.534-.117.828z"/></symbol><symbol viewBox="0 0 11 12" id="contacts-tel"><path d="M4.265 6.048c.298.364.567.63.564.629A8.752 8.752 0 0 0 6.27 8.1c.366.288.94.325 1.253.127.312-.198.912-.6 1.36-.498.378.086.878.375 1.48 1.116 1.42 1.748.148 2.294-.733 2.999-.883.704-3.794-1.04-6.46-3.884C.5 5.117-.504 2.176.234 1.31.974.444 1.59-.84 3.158.765c.666.68.905 1.221.96 1.62.065.474-.363 1.068-.575 1.378-.212.31-.218.91.03 1.313.219.355.453.679.692.972z"/></symbol><symbol viewBox="0 0 91 91" fill="none" id="delivery"><g clip-path="url(#a)" fill="#29497A"><path d="M28.178 47.735a6.945 6.945 0 1 0 0 13.89 6.945 6.945 0 0 0 0-13.89zm0 9.898a2.954 2.954 0 1 1 2.954-2.953 2.96 2.96 0 0 1-2.954 2.953zm34.644-9.898a6.945 6.945 0 1 0 0 13.89 6.945 6.945 0 0 0 0-13.89zm0 9.898a2.954 2.954 0 1 1 2.954-2.953 2.96 2.96 0 0 1-2.954 2.953z"/><path d="M78.867 0H12.133C6.638.003 2.187 4.463 2.195 9.958v57.514a5.952 5.952 0 0 0 5.947 5.967h.44v2.095c0 2.195 1.855 3.891 4.05 3.891h1.936v7.604c0 2.195 1.876 3.971 4.091 3.971h7.862a4.003 4.003 0 0 0 4.012-3.971v-7.604h29.934v7.604A4.003 4.003 0 0 0 64.48 91h7.862c2.195 0 4.091-1.776 4.091-3.971v-7.604h1.936c2.195 0 4.05-1.696 4.05-3.891v-2.095h.44a5.94 5.94 0 0 0 5.947-5.967V9.958C88.813 4.463 84.362.003 78.866 0zM26.541 87.009h-7.983v-7.584h7.983v7.584zm45.899 0h-7.983v-7.584h7.983v7.584zm5.927-11.575H12.572V68.05H77.65c.378 0 .698.22.698.62v6.764h.02zm-4.33-33.326H47.295V20.754h22.85a3.901 3.901 0 0 1 3.891 3.971v17.383zm-30.733 0H16.963V24.725a3.903 3.903 0 0 1 3.891-3.97h22.45v21.353zm-26.342 3.99h57.074V64.06H16.963V46.1zm67.85 21.374a1.947 1.947 0 0 1-.564 1.397c-.367.372-.868.58-1.391.578h-.44v-.778c0-2.435-1.995-4.43-4.39-4.67V24.725a7.893 7.893 0 0 0-7.882-7.962H20.854a7.875 7.875 0 0 0-7.882 7.962V64.06h-.34c-2.195 0-4.05 1.697-4.05 3.912v1.476h-.44a1.94 1.94 0 0 1-1.956-1.975V9.958a5.952 5.952 0 0 1 5.947-5.967h66.734a5.952 5.952 0 0 1 5.947 5.967v57.514z"/><circle cx="54" cy="48" r="33" fill-opacity=".5"/></g></symbol><symbol viewBox="0 0 139.4 44.7" id="dorohovdesign"><path d="M52.2 19.5V8.1H57c3.6 0 6.1 2.1 6.1 5.7 0 3.5-2.6 5.7-6.1 5.7h-4.8zm7.9-5.7c0-1.8-1.1-3.1-3.1-3.1h-1.9v6.2H57c2 0 3.1-1.4 3.1-3.1m4.1 0c0-3.4 2.6-5.9 6.1-5.9 3.5 0 6.1 2.4 6.1 5.9 0 3.5-2.6 5.9-6.1 5.9-3.5 0-6.1-2.4-6.1-5.9m9.2 0c0-1.9-1.2-3.3-3.1-3.3-1.9 0-3.1 1.4-3.1 3.3 0 1.8 1.2 3.3 3.1 3.3 1.9 0 3.1-1.4 3.1-3.3m11 5.7l-1.9-3.8H81v3.8h-2.9V8.1h5.7c2.5 0 3.9 1.7 3.9 3.8 0 2-1.2 3-2.3 3.4l2.3 4.2h-3.3zm.3-7.6c0-.8-.6-1.2-1.4-1.2H81v2.4h2.3c.8 0 1.4-.4 1.4-1.2m4.2 1.9c0-3.4 2.6-5.9 6.1-5.9 3.5 0 6.1 2.4 6.1 5.9 0 3.5-2.6 5.9-6.1 5.9-3.5 0-6.1-2.4-6.1-5.9m9.1 0c0-1.9-1.2-3.3-3.1-3.3-1.9 0-3.1 1.4-3.1 3.3 0 1.8 1.2 3.3 3.1 3.3 1.9 0 3.1-1.4 3.1-3.3m12.4 5.7v-4.6h-4.7v4.6h-3V8.1h3v4.3h4.7V8.1h2.9v11.4zm4.6-5.7c0-3.4 2.6-5.9 6.1-5.9 3.5 0 6.1 2.4 6.1 5.9 0 3.5-2.6 5.9-6.1 5.9-3.5 0-6.1-2.4-6.1-5.9m9.2 0c0-1.9-1.2-3.3-3.1-3.3-1.9 0-3.1 1.4-3.1 3.3 0 1.8 1.2 3.3 3.1 3.3 1.9 0 3.1-1.4 3.1-3.3m7.3 5.7l-4.3-11.4h3.3l2.8 8.2 2.8-8.2h3.3l-4.2 11.4zm-79.3 17V25.1H57c3.6 0 6.1 2.1 6.1 5.7 0 3.5-2.6 5.7-6.1 5.7h-4.8zm7.9-5.7c0-1.8-1.1-3.1-3.1-3.1h-1.9v6.2H57c2 0 3.1-1.4 3.1-3.1m4.7 5.7V25.1h8.3v2.6h-5.3v1.8H73V32h-5.2v1.9h5.3v2.6zm9.6-1.6l1.5-2.2c.8.8 2.1 1.5 3.6 1.5 1 0 1.6-.4 1.6-.9 0-1.5-6.4-.3-6.4-4.7 0-1.9 1.6-3.6 4.5-3.6 1.8 0 3.4.5 4.6 1.6l-1.6 2.1c-1-.8-2.2-1.2-3.3-1.2-.8 0-1.2.3-1.2.8 0 1.4 6.4.4 6.4 4.6 0 2.3-1.7 3.8-4.7 3.8-2.2 0-3.8-.7-5-1.8m11.5-9.8h2.9v11.3h-2.9zm4.7 5.7c0-3.6 2.8-5.9 6.1-5.9 2.5 0 4.1 1.3 4.8 2.8L99.1 29c-.4-.7-1.3-1.4-2.4-1.4-1.9 0-3.2 1.4-3.2 3.3s1.3 3.3 3.2 3.3c.8 0 1.7-.3 2.1-.7v-.9h-2.6V30h5.5v4.5c-1.2 1.3-2.9 2.2-5 2.2-3.4 0-6.1-2.3-6.1-5.9m20.9 5.7l-4.8-6.6v6.6h-2.9V25.1h3l4.6 6.3v-6.3h2.9v11.4zM17.7 0H0v44.7h17.8c15 0 24.6-8.8 24.6-22.4C42.4 8.7 32.7 0 17.7 0m-.4 35.7h-8V9.5h8c9.3 0 15.7 3.7 15.7 12.7.1 7.5-5.8 13.5-15.7 13.5"/><path d="M19.1 17H17v10.6h2c4 0 6.4-2.4 6.4-5.4 0-3.7-2.6-5.2-6.3-5.2"/></symbol><symbol viewBox="0 0 96.124 96.123" id="fb"><path d="M72.089.02L59.624 0C45.62 0 36.57 9.285 36.57 23.656v10.907H24.037a1.96 1.96 0 0 0-1.96 1.961v15.803a1.96 1.96 0 0 0 1.96 1.96H36.57v39.876a1.96 1.96 0 0 0 1.96 1.96h16.352a1.96 1.96 0 0 0 1.96-1.96V54.287h14.654a1.96 1.96 0 0 0 1.96-1.96l.006-15.803a1.963 1.963 0 0 0-1.961-1.961H56.842v-9.246c0-4.444 1.059-6.7 6.848-6.7l8.397-.003a1.96 1.96 0 0 0 1.959-1.96V1.98A1.96 1.96 0 0 0 72.089.02z"/></symbol><symbol viewBox="0 0 68 68" fill="none" id="folder"><path d="M63.382 17.863a.998.998 0 0 0-.998.999v26.017H39.56V31.73a1 1 0 0 0-.998-1h-8.263a.999.999 0 0 0-.998 1v13.15H5.849v-7.542a.999.999 0 1 0-1.997 0v8.54a1 1 0 0 0 .998 1H29.3v4.031h-5.055a1 1 0 0 0-.84 1.54l9.709 15.093a.999.999 0 0 0 .833.459h.007a.999.999 0 0 0 .832-.446L44.819 52.46a1 1 0 0 0-.832-1.552H39.56v-4.031h23.822a.998.998 0 0 0 .999-1V18.863a.999.999 0 0 0-.999-.999zM42.124 52.906l-8.156 12.27-7.893-12.27H30.3a.999.999 0 0 0 .999-.999v-19.18h6.264v19.18a1 1 0 0 0 .999 1h3.562zM63.382 6.264H26.724a.99.99 0 0 0-.054-.119A11.676 11.676 0 0 0 16.403 0H4.85a.999.999 0 0 0-.998.999v31.76a.999.999 0 1 0 1.997 0V8.261h56.534v6.102a.999.999 0 0 0 1.998 0v-7.1a.999.999 0 0 0-.999-.999zM5.85 1.998h10.554a9.667 9.667 0 0 1 8.005 4.266H5.85V1.998z" fill="#29497A"/><circle cx="44.5" cy="42.5" r="19.5" fill="#29497A" fill-opacity=".5"/></symbol><symbol viewBox="0 0 90 90" fill="none" id="guarantee-certificate"><path d="M60 49.5c-4.964 0-9 4.036-9 9s4.036 9 9 9c4.963 0 9-4.036 9-9s-4.037-9-9-9zm0 15c-3.31 0-6-2.691-6-6 0-3.31 2.691-6 6-6 3.31 0 6 2.691 6 6 0 3.31-2.69 6-6 6z" fill="#29497A"/><path d="M63 64.5v6.198l-2.169-1.446a1.493 1.493 0 0 0-1.664 0L57 70.698V64.5h-3v9a1.499 1.499 0 0 0 2.332 1.248L60 72.303l3.667 2.445a1.507 1.507 0 0 0 1.541.075A1.5 1.5 0 0 0 66 73.5v-9h-3zM54 15H34.5v3H54v-3zm15 9H21v3h48v-3zm-15 9H21v3h33v-3zm15 0h-9v3h9v-3zm0 9H21v3h48v-3zm-30 9H21v3h18v-3zm-10.5 7.5H21v3h7.5v-3zm10.5 0h-4.5v3H39v-3zM82.5 0C78.365 0 75 3.364 75 7.5v3c0 .828.67 1.5 1.5 1.5h12a1.5 1.5 0 0 0 1.5-1.5v-3C90 3.364 86.636 0 82.5 0zM87 9h-9V7.5C78 5.02 80.019 3 82.5 3 84.98 3 87 5.02 87 7.5V9z" fill="#29497A"/><path d="M82.5 0h-63C15.365 0 12 3.364 12 7.5v72h3v-72C15 5.02 17.02 3 19.5 3h57.003A7.46 7.46 0 0 0 75 7.5v75c0 2.481-2.019 4.5-4.5 4.5h-57v3h57c4.135 0 7.5-3.364 7.5-7.5v-75C78 5.02 80.02 3 82.5 3a1.5 1.5 0 1 0 0-3z" fill="#29497A"/><path d="M70.5 87a4.505 4.505 0 0 1-4.5-4.5v-3c0-.83-.67-1.5-1.5-1.5h-63A1.5 1.5 0 0 0 0 79.5v3C0 86.635 3.364 90 7.5 90h63c.83 0 1.5-.67 1.5-1.5s-.67-1.5-1.5-1.5zm-63 0A4.506 4.506 0 0 1 3 82.5V81h60v1.5a7.46 7.46 0 0 0 1.503 4.5H7.5z" fill="#29497A"/><circle cx="49" cy="57" r="33" fill="#29497A" fill-opacity=".5"/></symbol><symbol viewBox="0 0 43 43" fill="none" id="icon-download"><path d="M40.08 11.296a.631.631 0 0 0-.632.631V28.38H25.016v-8.316a.632.632 0 0 0-.631-.632H19.16a.632.632 0 0 0-.632.632v8.316H3.698v-4.77a.632.632 0 1 0-1.262 0v5.401a.63.63 0 0 0 .631.631h15.461v2.55h-3.197a.632.632 0 0 0-.53.973l6.139 9.545a.63.63 0 0 0 .526.29h.005a.632.632 0 0 0 .526-.282l6.345-9.545a.632.632 0 0 0-.526-.981h-2.8v-2.55H40.08a.63.63 0 0 0 .631-.631V11.927a.632.632 0 0 0-.631-.631zm-13.443 22.16l-5.157 7.758-4.991-7.759h2.671a.632.632 0 0 0 .632-.631V20.695h3.961v12.129c0 .349.283.631.632.631h2.252zM40.08 3.961H16.899a.637.637 0 0 0-.034-.075A7.384 7.384 0 0 0 10.372 0H3.067a.632.632 0 0 0-.631.632v20.083a.632.632 0 1 0 1.263 0V5.225h35.75v3.858a.632.632 0 0 0 1.262 0v-4.49a.632.632 0 0 0-.631-.632zM3.699 1.263h6.673a6.113 6.113 0 0 1 5.063 2.698H3.699V1.263z" fill="#29497A"/><circle cx="28.14" cy="26.875" r="12.331" fill="#29497A" fill-opacity=".5"/></symbol><symbol viewBox="0 0 34 34" id="icon-mail"><path d="M24.472 32.047C21.787 33.462 19.05 34 15.776 34 7.765 34 .975 28.14.975 18.76.975 8.697 7.96 0 18.808 0c8.5 0 14.218 5.96 14.218 14.117 0 7.328-4.105 11.628-8.696 11.628-1.958 0-3.763-1.32-3.616-4.3h-.195c-1.71 2.884-3.958 4.3-6.89 4.3-2.832 0-5.275-2.299-5.275-6.157 0-6.059 4.786-11.576 11.576-11.576 2.1 0 3.958.437 5.227 1.026l-1.659 8.84c-.732 3.715-.148 5.426 1.464 5.473 2.494.048 5.279-3.274 5.279-8.942 0-7.081-4.253-12.165-11.827-12.165-7.96 0-14.655 6.304-14.655 16.222 0 8.159 5.327 13.19 12.554 13.19 2.785 0 5.375-.587 7.38-1.71l.78 2.1zm-2.685-21.108a8.605 8.605 0 0 0-2.443-.338c-4.3 0-7.77 4.053-7.77 8.792 0 2.152 1.075 3.715 3.227 3.715 2.832 0 5.421-3.616 5.959-6.647l1.027-5.522z"/></symbol><symbol viewBox="0 0 54 37" id="icon-next"><path d="M53.264 16.732l-16.07-16a2.519 2.519 0 0 0-3.55 0c-.98.977-.98 2.56 0 3.536L45.427 16H2.511A2.506 2.506 0 0 0 0 18.5C0 19.88 1.124 21 2.51 21h42.917L33.644 32.732c-.98.977-.98 2.56 0 3.536A2.51 2.51 0 0 0 35.42 37a2.51 2.51 0 0 0 1.775-.732l16.07-16c.98-.977.98-2.56 0-3.536z"/></symbol><symbol viewBox="0 0 50 50" id="icon-plus"><path opacity=".8" d="M31.42 25.32h-5.096v5.012h-2.352V25.32h-5.096v-2.212h5.096v-5.04h2.352v5.04h5.096v2.212z"/></symbol><symbol viewBox="0 0 64 88" fill="none" id="icon-point"><path d="M32 0C14.355 0 0 14.19 0 31.631c0 21.646 28.637 53.422 29.856 54.765a2.905 2.905 0 0 0 4.288 0C35.364 85.053 64 53.276 64 31.63 64 14.19 49.645 0 32 0zm0 47.546c-8.878 0-16.1-7.14-16.1-15.915 0-8.775 7.223-15.914 16.1-15.914 8.877 0 16.1 7.14 16.1 15.914 0 8.776-7.223 15.915-16.1 15.915z" fill="#29497A"/></symbol><symbol viewBox="0 0 54 37" id="icon-prev"><path d="M.736 20.268l16.069 16c.98.976 2.57.976 3.55 0a2.49 2.49 0 0 0 0-3.536L8.574 21H51.49c1.386 0 2.51-1.12 2.51-2.5S52.876 16 51.49 16H8.572L20.356 4.268c.98-.977.98-2.56 0-3.536A2.51 2.51 0 0 0 18.58 0a2.51 2.51 0 0 0-1.775.732l-16.07 16c-.98.977-.98 2.56 0 3.536z"/></symbol><symbol viewBox="0 0 14 14" id="icon-ruble"><path d="M.955 11.773h2.227v1.909a.308.308 0 0 0 .319.318h1.66a.314.314 0 0 0 .318-.318v-1.91H10.5a.31.31 0 0 0 .23-.089.31.31 0 0 0 .089-.229v-1.272a.309.309 0 0 0-.09-.229.31.31 0 0 0-.229-.09H5.48V8.69h3.38c1.326 0 2.408-.404 3.247-1.213.838-.808 1.258-1.852 1.258-3.132 0-1.279-.42-2.323-1.258-3.132C11.268.405 10.186 0 8.86 0H3.5a.31.31 0 0 0-.228.09.31.31 0 0 0-.09.228v6.255H.955a.315.315 0 0 0-.318.318v1.481a.31.31 0 0 0 .318.319h2.227v1.172H.955a.31.31 0 0 0-.229.09.31.31 0 0 0-.09.229v1.272c0 .093.03.17.09.23.06.059.136.089.229.089zm4.524-9.655H8.66c.702 0 1.269.206 1.7.617.43.41.646.948.646 1.61 0 .663-.215 1.2-.646 1.611-.431.411-.998.617-1.7.617H5.479V2.118z"/></symbol><symbol viewBox="0 0 27 44" id="icon-scroll"><path fill-rule="evenodd" clip-rule="evenodd" d="M13.5 0C8.814 0 5.17 1.423 2.76 4.306.353 7.187 0 10.55 0 12.283v19.435c0 1.732.352 5.095 2.76 7.976C5.17 42.577 8.815 44 13.5 44s8.33-1.423 10.74-4.306C26.648 36.813 27 33.45 27 31.718V12.282c0-1.731-.352-5.095-2.76-7.976C21.83 1.423 18.185 0 13.5 0zM2.36 12.283c0-.813.131-3.212 1.498-5.437 1.298-2.113 3.75-4.133 8.462-4.422v4.094a3.645 3.645 0 0 0-2.402 3.44v3.766a3.645 3.645 0 0 0 2.402 3.44v5.325c0 .65.519 1.193 1.18 1.193.661 0 1.18-.543 1.18-1.193v-5.325a3.645 3.645 0 0 0 2.402-3.44V9.959a3.645 3.645 0 0 0-2.402-3.44V2.423c4.713.29 7.163 2.309 8.462 4.422 1.367 2.225 1.498 4.624 1.498 5.437v19.435c0 .83-.137 3.315-1.586 5.579-1.425 2.225-4.17 4.316-9.554 4.316-5.385 0-8.129-2.091-9.554-4.316-1.45-2.264-1.586-4.749-1.586-5.58V12.284zm9.918-2.324c0-.703.558-1.257 1.222-1.257.664 0 1.222.554 1.222 1.257v3.765c0 .702-.558 1.257-1.222 1.257-.664 0-1.222-.555-1.222-1.257V9.959z"/></symbol><symbol viewBox="0 0 27 27" id="icon-search"><path d="M26.469 24.894l-6.442-6.442a11.254 11.254 0 0 0 2.559-7.159C22.586 5.059 17.527 0 11.293 0 5.053 0 0 5.059 0 11.293c0 6.234 5.053 11.293 11.293 11.293 2.718 0 5.206-.957 7.153-2.554l6.442 6.437a1.116 1.116 0 0 0 1.58-1.575zm-15.176-4.556c-4.993 0-9.05-4.058-9.05-9.045 0-4.988 4.057-9.05 9.05-9.05 4.988 0 9.05 4.062 9.05 9.05s-4.063 9.045-9.05 9.045z"/></symbol><symbol viewBox="0 0 29 29" id="icon-telephone"><path d="M9.11 9.6L2.414 2.9 5.007.305c.4-.4 1.046-.407 1.448-.012l5.217 5.222a1.033 1.033 0 0 1-.005 1.457l-1.143 1.141-1.063 1.064a2.93 2.93 0 0 0-.351.424zm5.509 10.913a58.787 58.787 0 0 1-3.169-2.964 59.539 59.539 0 0 1-2.962-3.175c-.773-.894-.924-2.188-.52-3.277L1.093 4.222c-1.6 1.644-1.395 5.722.358 9.305.752 1.55 1.728 2.948 2.737 4.278a38.344 38.344 0 0 0 3.275 3.74 36.529 36.529 0 0 0 3.73 3.286c1.33 1.013 2.732 1.982 4.272 2.733 3.588 1.75 7.667 1.943 9.31.342L17.9 21.03c-1.09.403-2.385.254-3.282-.518zm14.082 2.03l-5.217-5.219a1.039 1.039 0 0 0-1.457.005h-.004l-1.146 1.145-1.057 1.062a3.26 3.26 0 0 1-.424.352l6.694 6.698c.866-.868 1.73-1.73 2.599-2.595a1.02 1.02 0 0 0 .012-1.448z"/></symbol><symbol viewBox="0 0 97.395 97.395" id="inst"><path d="M12.501 0h72.393c6.875 0 12.5 5.09 12.5 12.5v72.395c0 7.41-5.625 12.5-12.5 12.5H12.501C5.624 97.395 0 92.305 0 84.895V12.5C0 5.09 5.624 0 12.501 0zm58.447 10.821a4.395 4.395 0 0 0-4.383 4.385v10.495a4.396 4.396 0 0 0 4.383 4.385h11.008a4.398 4.398 0 0 0 4.385-4.385V15.206a4.397 4.397 0 0 0-4.385-4.385H70.948zm15.439 30.367h-8.572a28.486 28.486 0 0 1 1.25 8.355c0 16.2-13.556 29.332-30.275 29.332-16.718 0-30.272-13.132-30.272-29.332 0-2.904.438-5.708 1.25-8.355h-8.945v41.141a3.884 3.884 0 0 0 3.872 3.872h67.822a3.883 3.883 0 0 0 3.872-3.872V41.188h-.002zM48.789 29.533c-10.802 0-19.56 8.485-19.56 18.953s8.758 18.953 19.56 18.953c10.803 0 19.562-8.485 19.562-18.953s-8.758-18.953-19.562-18.953z"/></symbol><symbol viewBox="0 0 84 46" id="logotip"><g clip-path="url(#clip0)"><path d="M45.36.408h-8.4L46.2 46h9.24l5.04-24.704L65.52 46h9.24L84 .408h-8.4L70.56 28.11 63.84.408h-6.72L51.24 28.11 45.36.408zM4 0v46h8V22l10.5 24h7V0h-7v29L11 0H4z"/></g></symbol><symbol viewBox="0 0 15 15" fill="none" id="market_list"><path fill="#29497A" fill-opacity=".2" d="M0 0h15v10H0zm0 12h15v3H0z"/></symbol><symbol viewBox="0 0 12 12" id="modal-close"><path d="M11.414 2.414a1.414 1.414 0 1 0-2-2l-3.5 3.5-3.5-3.5a1.414 1.414 0 1 0-2 2l3.5 3.5-3.5 3.5a1.414 1.414 0 0 0 2 2l3.5-3.5 3.5 3.5a1.414 1.414 0 1 0 2-2l-3.5-3.5 3.5-3.5z"/></symbol><symbol viewBox="0 0 7 4" id="navbar-dropdown"><path d="M3.5 4a.488.488 0 0 1-.347-.144L.143.84a.492.492 0 0 1 0-.695.49.49 0 0 1 .694 0L3.5 2.814 6.163.144a.49.49 0 0 1 .693 0 .492.492 0 0 1 0 .695l-3.01 3.017A.488.488 0 0 1 3.5 4z"/></symbol><symbol viewBox="0 0 11 17" id="pagin-next"><path fill-rule="evenodd" clip-rule="evenodd" d="M.9.98A1.5 1.5 0 0 0 .98 3.1l5.816 5.4-5.817 5.4a1.5 1.5 0 0 0 2.042 2.2l7-6.5a1.5 1.5 0 0 0 0-2.2l-7-6.5A1.5 1.5 0 0 0 .9.98z"/></symbol><symbol viewBox="0 0 11 17" id="pagin-prev"><path fill-rule="evenodd" clip-rule="evenodd" d="M10.1.98a1.5 1.5 0 0 1-.08 2.12L4.205 8.5l5.817 5.4a1.5 1.5 0 0 1-2.042 2.2l-7-6.5a1.5 1.5 0 0 1 0-2.2l7-6.5a1.5 1.5 0 0 1 2.12.08z"/></symbol><symbol viewBox="0 0 92 92" fill="none" id="recommended"><g clip-path="url(#a)" fill="#29497A"><circle cx="50" cy="45" r="33" fill-opacity=".5"/><path d="M70.496 40.622a5.288 5.288 0 0 0-5.282-5.282h-9.707c2.359-2.65 3.9-5.67 4.198-8.377.182-1.654-.33-3.296-1.403-4.505a5.063 5.063 0 0 0-3.777-1.734h-.05a5.254 5.254 0 0 0-3.725 1.53 5.217 5.217 0 0 0-1.555 3.707c-.051.308-.592 1.368-1.915 2.626-1.084 1.03-2.955 2.448-5.719 3.345-1.083.352-2.074 1-2.943 1.925a19.04 19.04 0 0 1-1.985 1.83 2.956 2.956 0 0 0-1.389-.346h-9.219a2.98 2.98 0 0 0-2.977 2.977v24.584a2.98 2.98 0 0 0 2.977 2.977h9.22a2.98 2.98 0 0 0 2.603-1.536h23.525a4.519 4.519 0 0 0 4.514-4.514c0-.837-.23-1.62-.628-2.293a4.515 4.515 0 0 0 1.537-6.147 4.515 4.515 0 0 0 2.164-3.852c0-.942-.29-1.818-.786-2.542a5.281 5.281 0 0 0 2.322-4.373zm-5.282 2.4h-.768a1.44 1.44 0 0 0 0 2.882c.9 0 1.633.732 1.633 1.633 0 .9-.733 1.632-1.633 1.632H62.91a1.44 1.44 0 0 0 0 2.881c.9 0 1.632.733 1.632 1.633s-.732 1.633-1.633 1.633h-1.536a1.44 1.44 0 0 0 0 2.88 1.634 1.634 0 0 1 0 3.265H38.221V47.538a1.44 1.44 0 0 0-2.88 0v15.366a.096.096 0 0 1-.097.095h-9.219a.096.096 0 0 1-.096-.095V38.317c0-.053.043-.096.096-.096h9.22c.052 0 .095.043.095.096v3.074a1.44 1.44 0 0 0 2.881 0v-3.074c0-.07-.005-.138-.01-.207a21.874 21.874 0 0 0 2.507-2.28c.533-.569 1.116-.958 1.733-1.158 3.39-1.1 5.672-2.873 6.99-4.166 1.65-1.62 2.635-3.31 2.635-4.52 0-.639.25-1.238.702-1.686a2.416 2.416 0 0 1 1.72-.695c.808.008 1.343.42 1.65.766.525.592.784 1.443.692 2.277-.314 2.862-2.603 6.4-5.831 9.013a1.44 1.44 0 0 0 .906 2.56h13.299c1.324 0 2.4 1.077 2.4 2.401 0 1.324-1.076 2.4-2.4 2.4z"/><path d="M30.635 56.836c-.796 0-1.448.653-1.448 1.448 0 .796.652 1.448 1.448 1.448.795 0 1.448-.652 1.448-1.448 0-.795-.653-1.448-1.448-1.448z"/><path d="M89.432 46l2.475-6.548a1.44 1.44 0 0 0-.224-1.41l-4.377-5.463.33-6.993a1.44 1.44 0 0 0-.648-1.272l-5.85-3.843-1.848-6.752a1.44 1.44 0 0 0-1.009-1.01l-6.752-1.846-3.843-5.851a1.442 1.442 0 0 0-1.272-.648l-6.993.33L53.958.317a1.44 1.44 0 0 0-1.41-.224l-6.549 2.475L39.453.094a1.44 1.44 0 0 0-1.41.223l-5.464 4.377-6.992-.33a1.438 1.438 0 0 0-1.272.648l-3.843 5.85-6.752 1.848a1.44 1.44 0 0 0-1.01 1.01l-1.847 6.751-5.85 3.843a1.44 1.44 0 0 0-.649 1.272l.33 6.993-4.377 5.463a1.44 1.44 0 0 0-.223 1.41L2.567 46 .093 52.548a1.44 1.44 0 0 0 .223 1.41l4.377 5.464-.33 6.992a1.44 1.44 0 0 0 .648 1.272l5.851 3.843 1.847 6.753a1.44 1.44 0 0 0 1.01 1.009l6.752 1.847 3.843 5.85c.28.427.764.671 1.272.649l6.992-.33 5.463 4.377a1.44 1.44 0 0 0 1.41.223L46 89.433l6.548 2.474a1.44 1.44 0 0 0 1.41-.223l5.463-4.377 6.993.33c.51.022.992-.223 1.272-.648l3.843-5.851 6.752-1.847a1.44 1.44 0 0 0 1.01-1.01l1.846-6.752 5.851-3.843a1.44 1.44 0 0 0 .648-1.272l-.33-6.992 4.377-5.463a1.44 1.44 0 0 0 .224-1.41L89.432 46zm-2.887.51l2.376 6.288-4.204 5.247a1.44 1.44 0 0 0-.314.969l.317 6.715-5.62 3.691a1.44 1.44 0 0 0-.598.824l-1.774 6.485-6.484 1.773a1.442 1.442 0 0 0-.825.6l-3.69 5.618-6.716-.317a1.441 1.441 0 0 0-.968.315l-5.247 4.204-6.29-2.377a1.44 1.44 0 0 0-1.018 0l-6.288 2.377-5.247-4.204a1.443 1.443 0 0 0-.969-.315l-6.715.317-3.691-5.619a1.44 1.44 0 0 0-.824-.599L15.27 76.73l-1.774-6.485a1.441 1.441 0 0 0-.598-.824l-5.62-3.69.318-6.716a1.44 1.44 0 0 0-.315-.969l-4.204-5.247 2.377-6.288a1.44 1.44 0 0 0 0-1.019l-2.377-6.289 4.204-5.246a1.44 1.44 0 0 0 .315-.969l-.317-6.716 5.619-3.69a1.44 1.44 0 0 0 .599-.825l1.773-6.484 6.485-1.774c.338-.092.631-.305.824-.599l3.69-5.619 6.716.317c.35.017.695-.095.969-.315l5.247-4.203 6.288 2.377c.329.124.69.124 1.019 0l6.289-2.377 5.246 4.203c.274.22.619.332.969.315l6.715-.317 3.691 5.62c.193.292.486.505.825.598l6.484 1.774 1.774 6.484c.093.339.305.632.599.825l5.619 3.69-.317 6.716c-.017.35.095.695.314.968l4.204 5.247-2.377 6.29a1.45 1.45 0 0 0 0 1.018z"/><path d="M73.067 21.127a37.7 37.7 0 0 0-2.26-2.26 1.44 1.44 0 1 0-1.948 2.123 34.935 34.935 0 0 1 2.086 2.085 1.437 1.437 0 0 0 2.035.087 1.44 1.44 0 0 0 .087-2.035zm-7.375-6.19c-6.946-4.426-15.31-6.393-23.55-5.54a36.862 36.862 0 0 0-22.196 10.576 36.672 36.672 0 0 0-10.743 24.51c-.372 9.2 2.674 18.13 8.58 25.149a1.437 1.437 0 0 0 2.03.174 1.44 1.44 0 0 0 .174-2.03C14.546 61.31 11.738 53.08 12.082 44.6a33.797 33.797 0 0 1 9.9-22.59 33.97 33.97 0 0 1 20.457-9.747c7.597-.787 15.304 1.025 21.705 5.103a1.44 1.44 0 0 0 1.548-2.43zm11.306 11.305a1.44 1.44 0 0 0-2.43 1.548c4.078 6.4 5.89 14.109 5.104 21.705a33.972 33.972 0 0 1-9.747 20.457 33.799 33.799 0 0 1-22.59 9.9c-8.478.345-16.71-2.464-23.177-7.904a1.44 1.44 0 1 0-1.855 2.204 36.639 36.639 0 0 0 25.148 8.58 36.67 36.67 0 0 0 24.511-10.743 36.86 36.86 0 0 0 10.576-22.197c.853-8.24-1.114-16.603-5.54-23.55z"/></g></symbol><symbol viewBox="0 0 44 44" id="view"><path fill-rule="evenodd" clip-rule="evenodd" d="M43 22c0 11.598-9.402 21-21 21S1 33.598 1 22 10.402 1 22 1s21 9.402 21 21zm1 0c0 12.15-9.85 22-22 22S0 34.15 0 22 9.85 0 22 0s22 9.85 22 22zm-4.968 0c0 9.407-7.625 17.032-17.032 17.032S4.968 31.407 4.968 22 12.593 4.968 22 4.968 39.032 12.593 39.032 22zm-11.443.798h-4.79v4.79a.798.798 0 1 1-1.597 0v-4.79h-4.79a.798.798 0 1 1 0-1.597h4.79v-4.79a.798.798 0 0 1 1.596 0v4.79h4.79a.799.799 0 0 1 0 1.597z"/></symbol><symbol viewBox="0 0 304.36 304.36" id="vk"><path d="M261.945 175.576c10.096 9.857 20.752 19.131 29.807 29.982 4 4.822 7.787 9.798 10.684 15.394 4.105 7.955.387 16.709-6.746 17.184l-44.34-.02c-11.436.949-20.559-3.655-28.23-11.474-6.139-6.253-11.824-12.908-17.727-19.372-2.42-2.642-4.953-5.128-7.979-7.093-6.053-3.929-11.307-2.726-14.766 3.587-3.523 6.421-4.322 13.531-4.668 20.687-.475 10.441-3.631 13.186-14.119 13.664-22.414 1.057-43.686-2.334-63.447-13.641-17.422-9.968-30.932-24.04-42.691-39.971-22.895-31.021-40.428-65.108-56.186-100.15C-2.01 76.458.584 72.22 9.295 72.07c14.465-.281 28.928-.261 43.41-.02 5.879.086 9.771 3.458 12.041 9.012 7.826 19.243 17.402 37.551 29.422 54.521 3.201 4.518 6.465 9.036 11.113 12.216 5.142 3.521 9.057 2.354 11.476-3.374 1.535-3.632 2.207-7.544 2.553-11.434 1.146-13.383 1.297-26.743-.713-40.079-1.234-8.323-5.922-13.711-14.227-15.286-4.238-.803-3.607-2.38-1.555-4.799 3.564-4.172 6.916-6.769 13.598-6.769h50.111c7.889 1.557 9.641 5.101 10.721 13.039l.043 55.663c-.086 3.073 1.535 12.192 7.07 14.226 4.43 1.448 7.35-2.096 10.008-4.905 11.998-12.734 20.561-27.783 28.211-43.366 3.395-6.852 6.314-13.968 9.143-21.078 2.096-5.276 5.385-7.872 11.328-7.757l48.229.043c1.43 0 2.877.021 4.262.258 8.127 1.385 10.354 4.881 7.844 12.817-3.955 12.451-11.65 22.827-19.174 33.251-8.043 11.129-16.645 21.877-24.621 33.072-7.328 10.223-6.746 15.376 2.357 24.255zm0 0" fill-rule="evenodd" clip-rule="evenodd"/></symbol><symbol viewBox="0 0 90 90" fill="none" id="wallet"><g clip-path="url(#a)" fill="#29497A"><path d="M81.113 15.5L53.638.624c-2.607-1.412-6.19-.326-7.602 2.28L29.963 32.768H10.415c-2.498 0-4.453 1.955-4.453 4.453v48.327c0 2.497 1.955 4.452 4.453 4.452H72.86c2.498 0 4.452-1.955 4.452-4.453V74.254h1.847c.977 0 1.737-.76 1.737-1.737V59.592c0-.977-.76-1.737-1.737-1.737h-1.847V45.148c0-2.063-1.52-3.91-3.475-4.344l9.557-17.701a5.693 5.693 0 0 0-2.28-7.602zM61.565 8.877l-17.158 31.82H39.52L57.873 6.92l3.692 1.955zm-12.38-4.344c.543-.977 1.846-1.412 2.824-.869l2.715 1.52L35.61 40.697h-5.973L49.185 4.532zM9.329 37.112c0-.326.434-.869.977-.869h17.702l-2.39 4.344H10.307c-.325 0-.651 0-.977.109v-3.584zm64.4 48.435a.973.973 0 0 1-.978.978H10.306a.973.973 0 0 1-.977-.978V45.148c0-.543.434-.977.977-.977h62.336c.544 0 .978.434.978.977v12.707h-6.625c-2.932 0-5.212 2.389-5.212 5.212v5.973c0 2.932 2.389 5.213 5.212 5.213h6.733v11.294zm3.475-24.217h.108v9.448H66.995c-.977 0-1.737-.76-1.737-1.738v-5.973c0-.977.76-1.737 1.737-1.737h10.209zm3.04-39.965L69.82 40.695H48.316l16.29-30.081 14.77 8.036c1.086.434 1.411 1.738.868 2.715z"/><path d="M73.62 19.736l-.869-.434c-2.172-1.195-5.104-.326-6.299 1.846l-1.086 2.063c-.543 1.086-.76 2.39-.326 3.584.326 1.195 1.195 2.172 2.281 2.715l.869.434c.651.326 1.412.544 2.172.544 1.738 0 3.258-.978 4.127-2.39l1.086-2.063c1.086-2.28.217-5.104-1.955-6.299zm-1.195 4.67l-1.086 2.063c-.326.543-1.086.76-1.629.435l-.868-.543c-.218-.109-.435-.435-.543-.652-.11-.326-.11-.651.108-.869l1.086-2.063c.217-.326.652-.652 1.086-.652.217 0 .326 0 .543.109l.869.434c.434.435.651 1.086.434 1.738z"/><circle cx="33" cy="57" r="33" fill-opacity=".5"/></g></symbol><symbol viewBox="0 0 97 97" fill="none" id="work"><path d="M78.308 61.912c3.705-2.26 6.185-6.341 6.185-10.99V41.07c0-6.42-4.726-11.755-10.882-12.712v-9.515c0-.782-.634-1.416-1.416-1.416H57.02v-5.685c0-5.057-4.114-9.17-9.17-9.17H25.76c-5.057 0-9.17 4.113-9.17 9.17v5.685H1.415C.634 17.427 0 18.06 0 18.843v50.288c0 .782.634 1.416 1.416 1.416h12.492a1.416 1.416 0 1 0 0-2.833H2.833V39.113a17.17 17.17 0 0 0 10.915 7.396v1.554c0 2.5 2.033 4.532 4.532 4.532a4.537 4.537 0 0 0 4.532-4.532v-1.202h10.941a1.416 1.416 0 0 0 0-2.832h-10.94V40.56c0-.782-.635-1.416-1.417-1.416h-6.232c-.783 0-1.417.634-1.417 1.416v3.05C7.424 42.06 2.833 36.333 2.833 29.682V20.26h67.945v7.974c-.084.005-.166.015-.25.023-.097.008-.194.015-.29.026a9.834 9.834 0 0 0-.35.044c-.094.013-.187.024-.28.039-.118.019-.235.041-.352.063-.089.017-.178.032-.267.05-.12.026-.24.055-.359.084-.083.02-.167.038-.25.06-.126.032-.25.07-.376.107-.073.021-.148.04-.22.063-.141.045-.28.093-.419.142-.055.02-.111.037-.166.058-.388.143-.768.303-1.137.481-.038.019-.076.04-.114.058-.145.072-.289.144-.43.22-.058.032-.114.066-.171.098-.12.068-.24.135-.358.206-.065.039-.127.08-.19.12a13.67 13.67 0 0 0-.324.207c-.066.045-.13.092-.196.138-.1.07-.201.14-.3.213-.067.05-.132.101-.197.152-.095.073-.19.146-.282.221-.066.054-.13.11-.195.165-.089.076-.178.151-.265.23-.065.057-.127.117-.19.176-.085.08-.169.158-.251.24-.063.06-.124.124-.185.187a12.838 12.838 0 0 0-.637.703 13.484 13.484 0 0 0-1.38 1.997 13.106 13.106 0 0 0-.286.54c-.04.084-.082.166-.121.25-.048.1-.094.203-.14.306l-.11.255c-.043.104-.084.21-.124.315-.033.086-.067.173-.098.26-.039.108-.075.216-.11.324-.029.088-.059.175-.086.264-.033.11-.064.221-.094.333-.025.089-.05.177-.073.267-.029.114-.054.229-.08.343l-.059.268c-.024.119-.044.239-.064.359-.015.087-.032.174-.045.262-.02.127-.034.255-.049.382-.01.083-.022.166-.03.249-.015.142-.024.285-.033.427-.005.072-.012.142-.016.213-.01.215-.016.431-.016.648v2.768c-.658.109-1.321.171-1.984.188V40.56c0-.782-.635-1.416-1.417-1.416H49.13c-.782 0-1.416.634-1.416 1.416v3.468h-9.242a1.416 1.416 0 0 0 0 2.832h9.242v1.202c0 2.5 2.033 4.532 4.532 4.532a4.537 4.537 0 0 0 4.532-4.532v-1.207a17.15 17.15 0 0 0 1.985-.156v4.221c0 .215.005.43.016.643.004.083.012.165.018.248.009.129.017.258.03.386.01.103.024.204.037.306.013.106.025.213.04.319.017.114.038.226.058.339.016.092.031.184.05.276.024.122.052.242.08.363.018.08.035.161.056.241.032.13.068.258.104.386.02.069.038.138.06.206.041.14.087.276.133.413l.056.165c.054.15.11.3.17.447l.046.117c.067.164.138.327.212.488l.027.058a12.949 12.949 0 0 0 4.992 5.59 26.496 26.496 0 0 0-10.468 5.803H18.63a1.416 1.416 0 0 0 0 2.832h33.144c-3.438 4.189-5.516 9.41-5.516 14.966v7.499c0 .782.634 1.416 1.416 1.416h10.788a1.416 1.416 0 0 0 0-2.832H49.09v-6.083c0-5.657 2.414-11.066 6.797-15.23l.133-.124a23.97 23.97 0 0 1 1.61-1.376l.197-.15a22.851 22.851 0 0 1 .578-.43c.041-.03.082-.058.124-.087a24.02 24.02 0 0 1 6.554-3.266l2.3 4.468-3.072 13.336a1.416 1.416 0 0 0 .424 1.363l5.938 5.435a1.414 1.414 0 0 0 1.912 0l5.94-5.435c.376-.345.538-.865.423-1.363l-3.072-13.336 2.3-4.468a23.966 23.966 0 0 1 9.196 5.433c4.383 4.164 6.797 9.573 6.797 15.23v6.082H63.182a1.416 1.416 0 0 0 0 2.833h32.402c.782 0 1.416-.634 1.416-1.416v-7.5c0-10.942-8.057-20.578-18.692-23.6zm-61.728-16.6v-3.334h3.399v6.085c0 .937-.763 1.7-1.7 1.7-.937 0-1.7-.763-1.7-1.7v-2.75zm32.54-27.885H24.49v-4.67a2.345 2.345 0 0 1 2.343-2.343h19.944a2.345 2.345 0 0 1 2.342 2.343v4.67zm5.068 0h-2.236v-4.67a5.18 5.18 0 0 0-5.175-5.175H26.834a5.18 5.18 0 0 0-5.175 5.175v4.67h-2.236v-5.685a6.345 6.345 0 0 1 6.338-6.338h22.09a6.345 6.345 0 0 1 6.337 6.338v5.685zm-.241 28.018v2.618c0 .938-.763 1.7-1.7 1.7-.937 0-1.7-.763-1.7-1.7v-6.085h3.4v3.467zm7.655-4.381c0-5.356 4.221-9.744 9.511-10.013a10.12 10.12 0 0 1 .996-.001h.035c5.29.27 9.51 4.658 9.51 10.014v3.373c-4.568-.847-6.417-5.492-6.5-5.705a1.415 1.415 0 0 0-1.224-.907 1.424 1.424 0 0 0-1.343.73c-.128.232-3.082 5.403-10.985 5.966v-3.457zm14.4 41.421l-4.374 4.002-4.373-4.002 2.75-11.938h3.246L76 82.485zm-8.1-18.345c.124-.023.248-.044.372-.065a21.982 21.982 0 0 1 1.58-.209l.058-.005c.21-.02.42-.036.63-.05l.255-.015c.172-.009.342-.013.513-.018.106.002.211.008.318.008.107 0 .213-.006.319-.008.17.005.341.01.513.018.054.003.11.005.164.009a23.001 23.001 0 0 1 2.092.227l.268.043c.123.021.247.042.37.065l-1.84 3.574h-3.771l-1.84-3.574zm4.313-3.205c-.03 0-.059-.002-.089 0a4.77 4.77 0 0 0-.106.006l-.032.002c-.113-.003-.226-.007-.34-.009h-.039c-.114.002-.227.006-.34.009-5.17-.185-9.4-4.404-9.66-9.522a10.208 10.208 0 0 1-.013-.5V47.36c6.404-.392 10.171-3.407 12.03-5.483 1.308 2.043 3.845 4.884 8.034 5.432v3.614c0 5.334-4.185 9.708-9.445 10.013z" fill="#29497A"/><circle cx="49" cy="49" r="33" fill="#29497A" fill-opacity=".5"/></symbol></svg>