<?xml version="1.0" standalone="no"?>
<!DOCTYPE svg PUBLIC "-//W3C//DTD SVG 20010904//EN"
 "http://www.w3.org/TR/2001/REC-SVG-20010904/DTD/svg10.dtd">
<svg version="1.0" xmlns="http://www.w3.org/2000/svg"
 width="700.000000pt" height="700.000000pt" viewBox="0 0 700.000000 700.000000"
 preserveAspectRatio="xMidYMid meet">
<metadata>
Created by potrace 1.11, written by Peter Selinger 2001-2013
</metadata>
<g transform="translate(0.000000,700.000000) scale(0.100000,-0.100000)"
fill="#000000" stroke="none">
<path d="M230 3500 l0 -1910 330 0 330 0 0 993 c0 599 4 986 9 978 5 -8 202
-455 438 -993 l428 -978 293 0 292 0 0 1910 0 1910 -290 0 -290 0 -2 -1202 -3
-1202 -477 1200 -476 1199 -291 3 -291 2 0 -1910z"/>
<path d="M2974 5363 c5 -18 766 -3760 766 -3769 0 -2 174 -3 387 -2 l387 3
207 1013 c114 557 209 1015 210 1017 2 2 94 -436 204 -973 109 -538 203 -996
208 -1020 l9 -42 386 2 385 3 379 1860 c208 1023 381 1875 384 1893 l6 32
-350 0 -350 0 -9 -52 c-68 -390 -409 -2235 -412 -2232 -3 3 -130 516 -282
1142 l-276 1137 -280 3 -281 2 -4 -22 c-3 -13 -112 -528 -244 -1146 -148 -697
-242 -1116 -246 -1105 -4 10 -114 518 -243 1128 -130 611 -238 1118 -241 1128
-5 16 -31 17 -355 17 -329 0 -350 -1 -345 -17z"/>
</g>
</svg>
