<svg width="91" height="91" viewBox="0 0 91 91" fill="none" xmlns="http://www.w3.org/2000/svg">
<g clip-path="url(#clip0)">
<path d="M28.1779 47.7349C24.3426 47.7349 21.233 50.8444 21.233 54.6798C21.233 58.5151 24.3426 61.6246 28.1779 61.6246C32.0132 61.6246 35.1228 58.5151 35.1228 54.6798C35.1197 50.8452 32.0125 47.738 28.1779 47.7349ZM28.1779 57.6334C26.5471 57.6334 25.2243 56.3105 25.2243 54.6798C25.2243 53.049 26.5471 51.7261 28.1779 51.7261C29.8095 51.7261 31.1316 53.049 31.1316 54.6798C31.1285 56.3098 29.8079 57.6295 28.1779 57.6334Z" fill="#29497A"/>
<path d="M62.8221 47.7349C58.9868 47.7349 55.8772 50.8444 55.8772 54.6798C55.8772 58.5151 58.9868 61.6246 62.8221 61.6246C66.6574 61.6246 69.767 58.5151 69.767 54.6798C69.7639 50.8452 66.6566 47.738 62.8221 47.7349ZM62.8221 57.6334C61.1905 57.6334 59.8684 56.3105 59.8684 54.6798C59.8684 53.049 61.1905 51.7261 62.8221 51.7261C64.4529 51.7261 65.7758 53.049 65.7758 54.6798C65.7719 56.3098 64.4521 57.6295 62.8221 57.6334Z" fill="#29497A"/>
<path d="M78.8665 0H12.1335C6.63779 0.00311815 2.18741 4.46285 2.19521 9.9578V67.472C2.19131 69.0521 2.8165 70.5683 3.93202 71.6878C5.04753 72.8072 6.56217 73.437 8.14229 73.4386H8.58117V75.534C8.58117 77.7292 10.4373 79.4254 12.6324 79.4254H14.568V87.029C14.568 89.2242 16.4436 91 18.659 91H26.5214C28.7236 91.0047 30.5158 89.2304 30.5329 87.029V79.4254H60.4671V87.029C60.4843 89.2304 62.2764 91.0047 64.4786 91H72.341C74.5362 91 76.4321 89.2242 76.4321 87.029V79.4254H78.3676C80.5628 79.4254 82.4189 77.7292 82.4189 75.534V73.4386H82.8578C84.4395 73.4401 85.9557 72.8118 87.0719 71.6917C88.1882 70.5715 88.8119 69.0529 88.8049 67.472V9.9578C88.8127 4.46285 84.3623 0.00311815 78.8665 0V0ZM26.5417 87.0088H18.5592V79.4254H26.5417V87.0088ZM72.4408 87.0088H64.4584V79.4254H72.4408V87.0088ZM78.3676 75.4342H12.5724V68.0504H77.6497C78.0285 68.0504 78.3482 68.2703 78.3482 68.6694V75.4342H78.3676ZM74.0373 42.1075H47.2961V20.7544H70.1459C71.1912 20.7567 72.1914 21.1785 72.9234 21.9252C73.6546 22.672 74.056 23.6808 74.0373 24.7253V42.1075ZM43.3049 42.1075H16.9628V24.7253C16.944 23.6808 17.3455 22.672 18.0767 21.9252C18.8087 21.1785 19.8088 20.7567 20.8542 20.7544H43.3049V42.1075ZM16.9628 46.0987H74.0373V64.0592H16.9628V46.0987ZM84.8136 67.472C84.8206 67.9943 84.6172 68.4979 84.2492 68.8689C83.8821 69.2408 83.3808 69.4489 82.8578 69.4474H82.4189V68.6694C82.4189 66.2341 80.4233 64.2385 78.0285 63.9992V24.7253C78.0472 22.6222 77.2256 20.5977 75.7453 19.1025C74.2657 17.6074 72.2498 16.7655 70.1459 16.7632H20.8542C18.7495 16.7616 16.7312 17.6027 15.2509 19.0986C13.7698 20.5946 12.9489 22.6206 12.9715 24.7253V64.0592H12.6324C10.4373 64.0592 8.58117 65.7555 8.58117 67.9709V69.4474H8.14229C7.61845 69.452 7.11564 69.2447 6.74692 68.8728C6.3782 68.5002 6.1763 67.9951 6.18644 67.472V9.9578C6.18254 8.37768 6.80773 6.86148 7.92324 5.74207C9.03876 4.62265 10.5534 3.99279 12.1335 3.99123H78.8665C80.4467 3.99279 81.9613 4.62265 83.0768 5.74207C84.1923 6.86148 84.8175 8.37768 84.8136 9.9578V67.472Z" fill="#29497A"/>
<circle cx="54" cy="48" r="33" fill="#29497A" fill-opacity="0.5"/>
</g>
<defs>
<clipPath id="clip0">
<rect width="91" height="91" fill="white"/>
</clipPath>
</defs>
</svg>
