<svg width="68" height="68" viewBox="0 0 68 68" fill="none" xmlns="http://www.w3.org/2000/svg">
<path d="M63.3822 17.8633C62.8302 17.8633 62.3835 18.3105 62.3835 18.862V44.8792H39.5605V31.7287C39.5605 31.1767 39.1133 30.7295 38.5618 30.7295H30.2994C29.7479 30.7295 29.3007 31.1767 29.3007 31.7287V44.8792H5.84946V37.3374C5.84946 36.7854 5.40225 36.3382 4.85025 36.3382C4.29877 36.3382 3.85156 36.7854 3.85156 37.3374V45.8779C3.85156 46.4294 4.29877 46.8766 4.85025 46.8766H29.3007V50.9082H24.245C23.8798 50.9082 23.5436 51.1079 23.3683 51.4285C23.1934 51.7497 23.2074 52.1403 23.4051 52.4474L33.1139 67.5414C33.2965 67.8252 33.6093 67.9974 33.9466 68H33.9538C34.2885 68 34.6008 67.8329 34.786 67.5544L44.8195 52.4599C45.0229 52.1533 45.0416 51.7595 44.8678 51.4353C44.694 51.111 44.3557 50.9082 43.9874 50.9082H39.5605V46.8766H63.3822C63.9342 46.8766 64.3809 46.4294 64.3809 45.8779V18.862C64.3809 18.3105 63.9337 17.8633 63.3822 17.8633ZM42.1239 52.9061L33.9678 65.1762L26.0753 52.9061H30.2999C30.8514 52.9061 31.2986 52.4589 31.2986 51.9074V32.7274H37.5631V51.9074C37.5631 52.4589 38.0098 52.9061 38.5618 52.9061H42.1239Z" fill="#29497A"/>
<path d="M63.3822 6.26398H26.7238C26.7088 6.22403 26.6912 6.18408 26.6704 6.14517C24.6196 2.35483 20.685 0 16.4029 0H4.85025C4.29877 0 3.85156 0.447205 3.85156 0.998688V32.7585C3.85156 33.3105 4.29877 33.7577 4.85025 33.7577C5.40225 33.7577 5.84946 33.3105 5.84946 32.7585V8.26187H62.3835V14.3645C62.3835 14.916 62.8307 15.3632 63.3822 15.3632C63.9342 15.3632 64.3809 14.916 64.3809 14.3645V7.26266C64.3809 6.71118 63.9337 6.26398 63.3822 6.26398ZM5.84946 1.99789H16.4029C19.6267 1.99789 22.6129 3.61032 24.4084 6.26398H5.84946V1.99789Z" fill="#29497A"/>
<circle cx="44.5" cy="42.5" r="19.5" fill="#29497A" fill-opacity="0.5"/>
</svg>
