<svg width="86" height="86" viewBox="0 0 86 86" fill="none" xmlns="http://www.w3.org/2000/svg">
<path d="M72.5625 0H13.4375C11.2146 0 9.40625 1.80835 9.40625 4.03125V81.9688C9.40625 84.1915 11.2146 86 13.4375 86H72.5625C74.7854 86 76.5938 84.1915 76.5938 81.9688V4.03125C76.5938 1.80835 74.7854 0 72.5625 0ZM13.4375 2.6875H72.5625C73.3034 2.6875 73.9062 3.29034 73.9062 4.03125V37.625H12.0938V4.03125C12.0938 3.29034 12.6966 2.6875 13.4375 2.6875ZM72.5625 83.3125H13.4375C12.6966 83.3125 12.0938 82.7097 12.0938 81.9688V40.3125H73.9062V81.9688C73.9062 82.7097 73.3034 83.3125 72.5625 83.3125Z" fill="#29497A"/>
<path d="M28.2188 22.8438C31.9235 22.8438 34.9375 19.8297 34.9375 16.125V14.7812C34.9375 11.0765 31.9235 8.0625 28.2188 8.0625C24.514 8.0625 21.5 11.0765 21.5 14.7812V16.125C21.5 19.8297 24.514 22.8438 28.2188 22.8438ZM24.1875 14.7812C24.1875 12.5584 25.9959 10.75 28.2188 10.75C30.4416 10.75 32.25 12.5584 32.25 14.7812V16.125C32.25 18.3479 30.4416 20.1562 28.2188 20.1562C25.9959 20.1562 24.1875 18.3479 24.1875 16.125V14.7812Z" fill="#29497A"/>
<path d="M19.9332 33.5938H36.5099C37.8655 33.5938 38.9686 32.4908 38.9686 31.1349V28.2188C38.9686 27.0491 38.4237 25.7401 37.511 24.7172C36.4581 23.5375 35.0714 22.8878 33.6057 22.8878H32.4652C31.9986 22.8878 31.5654 23.1299 31.3208 23.5274C30.5372 24.8008 29.4066 25.5313 28.2188 25.5313C27.0309 25.5313 25.9003 24.8008 25.1165 23.5274C24.872 23.13 24.4388 22.8878 23.9722 22.8878H22.8317C19.8114 22.8878 17.4688 25.7535 17.4688 28.2188V31.1294C17.4688 32.4882 18.5743 33.5938 19.9332 33.5938ZM20.1563 28.2188C20.1563 27.3111 21.1982 25.5753 22.8317 25.5753H23.263C24.5345 27.2649 26.3059 28.2188 28.2188 28.2188C30.1316 28.2188 31.903 27.2649 33.1743 25.5753H33.6057C35.2392 25.5753 36.2811 27.3111 36.2811 28.2188V30.9063H20.1561V28.2188H20.1563Z" fill="#29497A"/>
<path d="M43 12.0938H57.7812C58.5233 12.0938 59.125 11.4921 59.125 10.75C59.125 10.0079 58.5233 9.40625 57.7812 9.40625H43C42.2579 9.40625 41.6562 10.0079 41.6562 10.75C41.6562 11.4921 42.2579 12.0938 43 12.0938Z" fill="#29497A"/>
<path d="M43 22.8438H47.0312C47.7733 22.8438 48.375 22.2421 48.375 21.5C48.375 20.7579 47.7733 20.1562 47.0312 20.1562H43C42.2579 20.1562 41.6562 20.7579 41.6562 21.5C41.6562 22.2421 42.2579 22.8438 43 22.8438Z" fill="#29497A"/>
<path d="M56.4375 20.1562H52.4062C51.6642 20.1562 51.0625 20.7579 51.0625 21.5C51.0625 22.2421 51.6642 22.8438 52.4062 22.8438H56.4375C57.1796 22.8438 57.7812 22.2421 57.7812 21.5C57.7812 20.7579 57.1796 20.1562 56.4375 20.1562Z" fill="#29497A"/>
<path d="M65.8438 20.1562H61.8125C61.0704 20.1562 60.4688 20.7579 60.4688 21.5C60.4688 22.2421 61.0704 22.8438 61.8125 22.8438H65.8438C66.5858 22.8438 67.1875 22.2421 67.1875 21.5C67.1875 20.7579 66.5858 20.1562 65.8438 20.1562Z" fill="#29497A"/>
<path d="M43 17.4688H65.8438C66.5858 17.4688 67.1875 16.8671 67.1875 16.125C67.1875 15.3829 66.5858 14.7812 65.8438 14.7812H43C42.2579 14.7812 41.6562 15.3829 41.6562 16.125C41.6562 16.8671 42.2579 17.4688 43 17.4688Z" fill="#29497A"/>
<path d="M18.8125 47.0312H21.5C22.2421 47.0312 22.8438 46.4296 22.8438 45.6875C22.8438 44.9454 22.2421 44.3438 21.5 44.3438H18.8125C18.0704 44.3438 17.4688 44.9454 17.4688 45.6875C17.4688 46.4296 18.0704 47.0312 18.8125 47.0312Z" fill="#29497A"/>
<path d="M67.1875 44.3438H28.2188C27.4767 44.3438 26.875 44.9454 26.875 45.6875C26.875 46.4296 27.4767 47.0312 28.2188 47.0312H67.1875C67.9296 47.0312 68.5312 46.4296 68.5312 45.6875C68.5312 44.9454 67.9296 44.3438 67.1875 44.3438Z" fill="#29497A"/>
<path d="M18.8125 52.4062H21.5C22.2421 52.4062 22.8438 51.8046 22.8438 51.0625C22.8438 50.3204 22.2421 49.7188 21.5 49.7188H18.8125C18.0704 49.7188 17.4688 50.3204 17.4688 51.0625C17.4688 51.8046 18.0704 52.4062 18.8125 52.4062Z" fill="#29497A"/>
<path d="M67.1875 49.7188H28.2188C27.4767 49.7188 26.875 50.3204 26.875 51.0625C26.875 51.8046 27.4767 52.4062 28.2188 52.4062H67.1875C67.9296 52.4062 68.5312 51.8046 68.5312 51.0625C68.5312 50.3204 67.9296 49.7188 67.1875 49.7188Z" fill="#29497A"/>
<path d="M51.0625 57.7812H18.8125C18.0704 57.7812 17.4688 58.3829 17.4688 59.125C17.4688 59.8671 18.0704 60.4688 18.8125 60.4688H51.0625C51.8046 60.4688 52.4062 59.8671 52.4062 59.125C52.4062 58.3829 51.8046 57.7812 51.0625 57.7812Z" fill="#29497A"/>
<path d="M45.6875 68.5312H18.8125C18.0704 68.5312 17.4688 69.1329 17.4688 69.875C17.4688 70.6171 18.0704 71.2188 18.8125 71.2188H45.6875C46.4296 71.2188 47.0312 70.6171 47.0312 69.875C47.0312 69.1329 46.4296 68.5312 45.6875 68.5312Z" fill="#29497A"/>
<path d="M18.8125 65.8438H40.3125C41.0546 65.8438 41.6562 65.2421 41.6562 64.5C41.6562 63.7579 41.0546 63.1562 40.3125 63.1562H18.8125C18.0704 63.1562 17.4688 63.7579 17.4688 64.5C17.4688 65.2421 18.0704 65.8438 18.8125 65.8438Z" fill="#29497A"/>
<path d="M33.5938 73.9062H18.8125C18.0704 73.9062 17.4688 74.5079 17.4688 75.25C17.4688 75.9921 18.0704 76.5938 18.8125 76.5938H33.5938C34.3358 76.5938 34.9375 75.9921 34.9375 75.25C34.9375 74.5079 34.3358 73.9062 33.5938 73.9062Z" fill="#29497A"/>
<path d="M67.1875 73.9062H61.8125C61.0704 73.9062 60.4688 74.5079 60.4688 75.25C60.4688 75.9921 61.0704 76.5938 61.8125 76.5938H67.1875C67.9296 76.5938 68.5312 75.9921 68.5312 75.25C68.5312 74.5079 67.9296 73.9062 67.1875 73.9062Z" fill="#29497A"/>
<path d="M67.1875 68.5312H64.5C63.7579 68.5312 63.1562 69.1329 63.1562 69.875C63.1562 70.6171 63.7579 71.2188 64.5 71.2188H67.1875C67.9296 71.2188 68.5312 70.6171 68.5312 69.875C68.5312 69.1329 67.9296 68.5312 67.1875 68.5312Z" fill="#29497A"/>
<circle cx="50" cy="52" r="33" fill="#29497A" fill-opacity="0.5"/>
</svg>
