<svg width="90" height="90" viewBox="0 0 90 90" fill="none" xmlns="http://www.w3.org/2000/svg">
<path d="M60 49.5C55.0365 49.5 51 53.5365 51 58.5C51 63.4635 55.0365 67.5 60 67.5C64.9635 67.5 69 63.4635 69 58.5C69 53.5365 64.9635 49.5 60 49.5ZM60 64.4999C56.6909 64.4999 54.0001 61.8089 54.0001 58.5C54.0001 55.1909 56.6911 52.5001 60 52.5001C63.3091 52.5001 65.9999 55.1911 65.9999 58.5C66.0001 61.8091 63.3091 64.4999 60 64.4999Z" fill="#29497A"/>
<path d="M63 64.5V70.698L60.831 69.2521C60.3271 68.9146 59.6716 68.9146 59.1674 69.2521L56.9999 70.698V64.5H54V73.5C54 74.0535 54.3044 74.5621 54.7935 74.8229C55.2795 75.084 55.8735 75.0539 56.3324 74.7479L59.9999 72.3029L63.6674 74.7479C63.9179 74.9143 64.209 74.9999 64.4999 74.9999C64.7429 74.9999 64.986 74.9414 65.208 74.8229C65.6954 74.5619 66.0001 74.0534 66.0001 73.5V64.5H63Z" fill="#29497A"/>
<path d="M54.0001 15H34.5001V18.0001H54.0001V15Z" fill="#29497A"/>
<path d="M69.0002 24H21.0001V27.0001H69.0002V24Z" fill="#29497A"/>
<path d="M54.0001 32.9999H21.0001V35.9999H54.0001V32.9999Z" fill="#29497A"/>
<path d="M69 32.9999H60V35.9999H69V32.9999Z" fill="#29497A"/>
<path d="M69.0002 42H21.0001V45.0001H69.0002V42Z" fill="#29497A"/>
<path d="M39.0001 50.9999H21.0001V53.9999H39.0001V50.9999Z" fill="#29497A"/>
<path d="M28.5002 58.5H21.0001V61.5001H28.5002V58.5Z" fill="#29497A"/>
<path d="M39.0001 58.5H34.5001V61.5001H39.0001V58.5Z" fill="#29497A"/>
<path d="M82.4999 0C78.3645 0 74.9999 3.36445 74.9999 7.50006V10.5001C74.9999 11.328 75.6703 12.0001 76.4998 12.0001H88.4999C89.3294 12.0001 89.9998 11.328 89.9998 10.5001V7.50006C90 3.36445 86.6356 0 82.4999 0ZM87 9H77.9999V7.50006C77.9999 5.01908 80.019 3.00006 82.4999 3.00006C84.9809 3.00006 87 5.01908 87 7.50006V9Z" fill="#29497A"/>
<path d="M82.5 0H19.5C15.3646 0 12.0001 3.36445 12.0001 7.50006V79.5001H15.0002V7.50006C15.0002 5.01908 17.0192 3.00006 19.5002 3.00006H76.5032C75.5598 4.25408 75.0003 5.81256 75.0003 7.50006V82.5001C75.0003 84.9811 72.9813 87.0001 70.5003 87.0001H13.5001V90H70.5001C74.6355 90 78.0002 86.6356 78.0002 82.4999V7.50006C78.0002 5.01908 80.0192 3.00006 82.5002 3.00006C83.3297 3.00006 84.0001 2.32805 84.0001 1.50012C84.0001 0.672188 83.3295 0 82.5 0Z" fill="#29497A"/>
<path d="M70.5001 86.9999C68.0191 86.9999 66.0001 84.9809 66.0001 82.4999V79.4998C66.0001 78.6703 65.3296 77.9999 64.5001 77.9999H1.49994C0.672012 77.9999 0 78.6703 0 79.4998V82.4999C0 86.6355 3.36445 90 7.50006 90H70.5001C71.3296 90 72 89.3295 72 88.5C72 87.6705 71.3296 86.9999 70.5001 86.9999ZM7.50006 86.9999C5.01908 86.9999 3.00006 84.9809 3.00006 82.4999V80.9999H63V82.4999C63 84.1874 63.5595 85.7459 64.5029 86.9999H7.50006Z" fill="#29497A"/>
<circle cx="49" cy="57" r="33" fill="#29497A" fill-opacity="0.5"/>
</svg>
