<svg width="43" height="43" viewBox="0 0 43 43" fill="none" xmlns="http://www.w3.org/2000/svg">
<path d="M40.0799 11.2959C39.7308 11.2959 39.4484 11.5787 39.4484 11.9274V28.3795H25.0162V20.0637C25.0162 19.7147 24.7334 19.4319 24.3847 19.4319H19.1599C18.8112 19.4319 18.5284 19.7147 18.5284 20.0637V28.3795H3.69892V23.6104C3.69892 23.2614 3.41613 22.9786 3.06707 22.9786C2.71834 22.9786 2.43555 23.2614 2.43555 23.6104V29.011C2.43555 29.3598 2.71834 29.6425 3.06707 29.6425H18.5284V32.1919H15.3314C15.1005 32.1919 14.8879 32.3182 14.777 32.521C14.6664 32.7241 14.6753 32.9711 14.8003 33.1653L20.9397 42.71C21.0551 42.8894 21.253 42.9984 21.4662 43H21.4708C21.6824 43 21.8799 42.8944 21.997 42.7182L28.3418 33.1732C28.4704 32.9793 28.4822 32.7303 28.3723 32.5252C28.2624 32.3202 28.0485 32.1919 27.8156 32.1919H25.0162V29.6425H40.0799C40.429 29.6425 40.7114 29.3598 40.7114 29.011V11.9274C40.7114 11.5787 40.4286 11.2959 40.0799 11.2959ZM26.6372 33.4553L21.4797 41.2143L16.4888 33.4553H19.1602C19.509 33.4553 19.7918 33.1725 19.7918 32.8238V20.6953H23.7531V32.8238C23.7531 33.1725 24.0356 33.4553 24.3847 33.4553H26.6372Z" fill="#29497A"/>
<path d="M40.0799 3.96104H16.8989C16.8894 3.93578 16.8782 3.91052 16.8651 3.88592C15.5683 1.48908 13.0802 0 10.3724 0H3.06707C2.71834 0 2.43555 0.282791 2.43555 0.631523V20.7149C2.43555 21.064 2.71834 21.3468 3.06707 21.3468C3.41613 21.3468 3.69892 21.064 3.69892 20.7149V5.22442H39.4484V9.08344C39.4484 9.43217 39.7312 9.71496 40.0799 9.71496C40.429 9.71496 40.7114 9.43217 40.7114 9.08344V4.59257C40.7114 4.24384 40.4286 3.96104 40.0799 3.96104ZM3.69892 1.26337H10.3724C12.411 1.26337 14.2993 2.283 15.4348 3.96104H3.69892V1.26337Z" fill="#29497A"/>
<circle cx="28.1395" cy="26.875" r="12.3309" fill="#29497A" fill-opacity="0.5"/>
</svg>
