<svg width="64" height="88" viewBox="0 0 64 88" fill="none" xmlns="http://www.w3.org/2000/svg">
<path d="M32 0C14.3551 0 0 14.1898 0 31.6312C0 53.2766 28.6369 85.0534 29.8561 86.3956C31.0013 87.6564 33.0008 87.6541 34.1439 86.3956C35.3631 85.0534 64 53.2766 64 31.6312C63.9997 14.1898 49.6447 0 32 0ZM32 47.5458C23.1224 47.5458 15.9002 40.4066 15.9002 31.6312C15.9002 22.8559 23.1226 15.7168 32 15.7168C40.8774 15.7168 48.0997 22.8561 48.0997 31.6314C48.0997 40.4067 40.8774 47.5458 32 47.5458Z" fill="#29497A"/>
</svg>
