<svg width="29" height="29" viewBox="0 0 29 29" xmlns="http://www.w3.org/2000/svg">
<path d="M9.11004 9.60036L2.41377 2.90065C3.27808 2.03634 4.14068 1.17031 5.00671 0.304277C5.40707 -0.0960908 6.05316 -0.102964 6.45525 0.292248L11.6721 5.51421C12.0707 5.91286 12.0707 6.56925 11.6669 6.97134L10.5242 8.1123L9.46058 9.17594C9.32999 9.30825 9.21142 9.44915 9.11004 9.60036ZM14.619 20.5134C13.5227 19.57 12.4711 18.5682 11.4504 17.5493C10.4314 16.5234 9.43309 15.4753 8.48801 14.3738C7.71477 13.4803 7.56356 12.1864 7.96736 11.097L1.0941 4.22203C-0.505648 5.86646 -0.301168 9.94402 1.45151 13.5267C2.20414 15.0766 3.18014 16.4753 4.18879 17.8053C5.19572 19.125 6.3006 20.3725 7.4639 21.5444C8.63063 22.7145 9.87126 23.8246 11.1944 24.8315C12.5243 25.8436 13.9265 26.8127 15.4661 27.5636C19.0539 29.3146 23.1332 29.507 24.7759 27.9056L17.9009 21.0306C16.8115 21.4344 15.5159 21.2849 14.619 20.5134ZM28.7006 22.5427L23.4837 17.3242C23.0834 16.929 22.427 16.929 22.0266 17.3293H22.0232L20.8771 18.4737L19.8203 19.5357C19.6897 19.6662 19.5471 19.7814 19.3959 19.8879L26.0904 26.5859C26.9565 25.7182 27.8208 24.8556 28.6885 23.9912C29.0923 23.5909 29.1009 22.9431 28.7006 22.5427Z"/>
</svg>
