<svg width="27" height="27" viewBox="0 0 27 27" xmlns="http://www.w3.org/2000/svg">
<path d="M26.4688 24.8938L20.0266 18.4516C21.6234 16.5047 22.5859 14.0109 22.5859 11.293C22.5859 5.05859 17.5273 0 11.293 0C5.05312 0 0 5.05859 0 11.293C0 17.5273 5.05312 22.5859 11.293 22.5859C14.0109 22.5859 16.4992 21.6289 18.4461 20.032L24.8883 26.4688C25.3258 26.9062 26.0312 26.9062 26.4688 26.4688C26.9062 26.0367 26.9062 25.3258 26.4688 24.8938ZM11.293 20.3383C6.3 20.3383 2.24219 16.2805 2.24219 11.293C2.24219 6.30547 6.3 2.24219 11.293 2.24219C16.2805 2.24219 20.3438 6.30547 20.3438 11.293C20.3438 16.2805 16.2805 20.3383 11.293 20.3383Z" />
</svg>
