<svg width="34" height="34" viewBox="0 0 34 34" xmlns="http://www.w3.org/2000/svg">
<path d="M24.4721 32.0466C21.7874 33.4622 19.0502 34 15.7764 34C7.7648 34 0.974609 28.1407 0.974609 18.7605C0.974727 8.69598 7.95954 0 18.808 0C27.3088 0 33.0255 5.95916 33.0255 14.1175C33.0255 21.4452 28.9211 25.7448 24.3296 25.7448C22.3722 25.7448 20.5669 24.4247 20.7136 21.4453H20.5185C18.8081 24.3291 16.5605 25.7448 13.6289 25.7448C10.7965 25.7448 8.3541 23.4463 8.3541 19.5876C8.3541 13.5293 13.1397 8.01184 19.9299 8.01184C22.0299 8.01184 23.8883 8.44922 25.1567 9.03829L23.498 17.8778C22.7659 21.5933 23.35 23.3037 24.9622 23.3509C27.4557 23.3987 30.2406 20.0768 30.2406 14.4086C30.2406 7.32757 25.9882 2.24354 18.4138 2.24354C10.454 2.24354 3.7591 8.54842 3.7591 18.466C3.7591 26.625 9.08579 31.6566 16.3132 31.6566C19.0982 31.6566 21.6881 31.0686 23.6925 29.9462L24.4721 32.0466ZM21.7867 10.9393C21.2976 10.796 20.4659 10.6009 19.3436 10.6009C15.044 10.6009 11.5748 14.6544 11.5748 19.393C11.5748 21.5447 12.649 23.1085 14.8008 23.1085C17.6332 23.1085 20.2223 19.4925 20.76 16.4607L21.7867 10.9393Z" />
</svg>
