<svg width="92" height="92" viewBox="0 0 92 92" fill="none" xmlns="http://www.w3.org/2000/svg">
<g clip-path="url(#clip0)">
<circle cx="50" cy="45" r="33" fill="#29497A" fill-opacity="0.5"/>
<path d="M70.4963 40.6221C70.4963 37.7096 68.1269 35.3404 65.2143 35.3404H55.5073C57.8657 32.6895 59.407 29.6709 59.7048 26.9628C59.8866 25.3088 59.3756 23.667 58.3023 22.4582C57.3214 21.3533 55.98 20.7375 54.5253 20.7241C54.5084 20.7239 54.4915 20.7239 54.4748 20.7239C53.0677 20.7239 51.7469 21.2658 50.7502 22.2534C49.7533 23.2411 49.2017 24.557 49.1952 25.9612C49.144 26.2687 48.6031 27.3287 47.2797 28.5872C46.1962 29.6179 44.3246 31.0347 41.5612 31.9319C40.4777 32.2837 39.4874 32.9315 38.6181 33.8572C38.1619 34.3428 37.4787 35.0133 36.6329 35.6865C36.2178 35.4665 35.7458 35.3407 35.2443 35.3407H26.025C24.3834 35.3407 23.048 36.6762 23.048 38.3178V62.9023C23.048 64.5439 24.3834 65.8794 26.025 65.8794H35.2443C36.3634 65.8794 37.3392 65.258 37.8478 64.3428H61.373C63.8618 64.3428 65.8866 62.3181 65.8866 59.8293C65.8866 58.9925 65.6578 58.2083 65.2593 57.5356C66.5561 56.7417 67.4231 55.3118 67.4231 53.6831C67.4231 52.8463 67.1943 52.0621 66.7958 51.3894C68.0926 50.5955 68.9596 49.1655 68.9596 47.5369C68.9596 46.5949 68.6696 45.7195 68.1742 44.995C69.5745 44.0439 70.4963 42.4386 70.4963 40.6221ZM65.2143 43.0229H64.446C63.6505 43.0229 63.0055 43.6678 63.0055 44.4635C63.0055 45.259 63.6503 45.904 64.446 45.904C65.3462 45.904 66.0786 46.6364 66.0786 47.5367C66.0786 48.4369 65.3462 49.1693 64.446 49.1693H62.9095C62.114 49.1693 61.4689 49.8142 61.4689 50.6099C61.4689 51.4053 62.1138 52.0504 62.9095 52.0504C63.8097 52.0504 64.5421 52.7828 64.5421 53.6831C64.5421 54.5833 63.8097 55.3157 62.9095 55.3157H61.373C60.5775 55.3157 59.9324 55.9606 59.9324 56.7563C59.9324 57.5517 60.5773 58.1968 61.373 58.1968C62.2732 58.1968 63.0056 58.9292 63.0056 59.8295C63.0056 60.7297 62.2732 61.4621 61.373 61.4621H38.2213V47.5372C38.2213 46.7417 37.5764 46.0967 36.7808 46.0967C35.9851 46.0967 35.3402 46.7416 35.3402 47.5372V62.9025C35.3402 62.9555 35.2973 62.9984 35.2443 62.9984H26.025C25.972 62.9984 25.9291 62.9555 25.9291 62.9025V38.3173C25.9291 38.2643 25.972 38.2213 26.025 38.2213H35.2443C35.2973 38.2213 35.3402 38.2643 35.3402 38.3173V41.3905C35.3402 42.1859 35.9851 42.831 36.7808 42.831C37.5764 42.831 38.2213 42.1861 38.2213 41.3905V38.3173C38.2213 38.2474 38.2156 38.1789 38.2107 38.1103C39.2908 37.2742 40.1546 36.4289 40.7181 35.8291C41.2512 35.2611 41.8341 34.8719 42.4506 34.6719C45.8413 33.5712 48.1232 31.7987 49.4401 30.5057C51.0907 28.8851 52.076 27.1957 52.076 25.9862C52.076 25.3472 52.3252 24.7483 52.7778 24.2998C53.236 23.8458 53.8428 23.6059 54.4985 23.605C55.306 23.6125 55.8408 24.0256 56.1475 24.371C56.6733 24.9631 56.932 25.8144 56.8405 26.648C56.5259 29.5102 54.2369 33.0483 51.009 35.6613C50.5348 36.0453 50.3538 36.6864 50.5574 37.2616C50.761 37.8368 51.3051 38.2213 51.9153 38.2213H65.214C66.5379 38.2213 67.6148 39.2982 67.6148 40.6221C67.6148 41.9461 66.5381 43.0229 65.2143 43.0229Z" fill="#29497A"/>
<path d="M30.6347 56.8362C29.8393 56.8362 29.1866 57.4888 29.1866 58.2843C29.1866 59.0798 29.8393 59.7324 30.6347 59.7324C31.4302 59.7324 32.0828 59.0798 32.0828 58.2843C32.083 57.489 31.4304 56.8362 30.6347 56.8362Z" fill="#29497A"/>
<path d="M89.432 46.0003L91.9066 39.4519C92.0868 38.9756 92.0018 38.4396 91.6833 38.0419L87.3063 32.5787L87.6362 25.5862C87.6602 25.0777 87.4137 24.5938 86.9882 24.3144L81.1372 20.471L79.2904 13.7187C79.156 13.2275 78.7722 12.8436 78.2811 12.7094L71.5288 10.8626L67.6855 5.01178C67.4059 4.5861 66.9221 4.34065 66.4136 4.36383L59.4211 4.69374L53.9579 0.316729C53.5604 -0.00167755 53.0244 -0.0866698 52.5479 0.0933771L45.9995 2.56803L39.4515 0.0935568C38.9748 -0.0866698 38.439 -0.00167758 38.0415 0.316908L32.5783 4.69392L25.5858 4.36401C25.0747 4.33993 24.5933 4.58646 24.3139 5.01196L20.4708 10.8629L13.7185 12.7098C13.2272 12.8442 12.8434 13.228 12.7092 13.7191L10.8623 20.4714L5.01135 24.3145C4.58567 24.5941 4.33932 25.0778 4.3634 25.5864L4.69331 32.5789L0.316298 38.0421C-0.00210818 38.4396 -0.0871004 38.9756 0.0929465 39.4521L2.56742 46.0003L0.0927668 52.5485C-0.0874597 53.0248 -0.00246755 53.5608 0.316118 53.9585L4.69313 59.4217L4.36322 66.4142C4.33914 66.9228 4.58567 67.4067 5.01117 67.6861L10.8622 71.5294L12.709 78.2817C12.8434 78.773 13.2272 79.1568 13.7183 79.291L20.4706 81.1378L24.3137 86.9888C24.5933 87.4145 25.078 87.6592 25.5856 87.6368L32.5781 87.3069L38.0413 91.6839C38.4388 92.0025 38.975 92.0874 39.4513 91.9072L45.9997 89.4326L52.548 91.9072C52.7134 91.9696 52.8857 92.0001 53.0571 92.0001C53.3798 92.0001 53.6984 91.8918 53.9579 91.6839L59.4211 87.3069L66.4136 87.6368C66.9238 87.6594 67.4059 87.4143 67.6855 86.9888L71.5288 81.1378L78.2811 79.291C78.7724 79.1566 79.1562 78.7728 79.2904 78.2817L81.1372 71.5294L86.9882 67.6861C87.4139 67.4065 87.6602 66.9228 87.6362 66.4142L87.3063 59.4217L91.6833 53.9585C92.0017 53.561 92.0867 53.025 91.9066 52.5485L89.432 46.0003ZM86.5446 46.5095L88.9211 52.7984L84.7175 58.0451C84.4981 58.3188 84.3862 58.6632 84.4027 59.0136L84.7197 65.7291L79.1006 69.4201C78.8076 69.6125 78.5945 69.9056 78.5019 70.2441L76.7282 76.7288L70.2435 78.5025C69.9051 78.5951 69.6122 78.808 69.4194 79.1012L65.7285 84.7203L59.013 84.4033C58.6624 84.3871 58.3182 84.4987 58.0445 84.7181L52.7978 88.9217L46.5089 86.5452C46.3449 86.4832 46.1722 86.4523 45.9997 86.4523C45.8272 86.4523 45.6545 86.4834 45.4905 86.5452L39.2016 88.9217L33.9549 84.7181C33.6812 84.4987 33.3362 84.3871 32.9864 84.4033L26.2709 84.7203L22.5799 79.1012C22.3875 78.8082 22.0944 78.5951 21.7559 78.5025L15.2711 76.7288L13.4975 70.2441C13.4049 69.9057 13.192 69.6129 12.8987 69.4201L7.27973 65.7291L7.5967 59.0136C7.61323 58.6631 7.50128 58.3188 7.28188 58.0451L3.07827 52.7984L5.455 46.5095C5.57899 46.1814 5.57899 45.8192 5.455 45.4911L3.07827 39.2022L7.28188 33.9555C7.50128 33.6818 7.61323 33.3374 7.5967 32.987L7.27973 26.2715L12.8987 22.5805C13.1918 22.3881 13.4049 22.095 13.4975 21.7565L15.2711 15.2718L21.7559 13.4981C22.0942 13.4055 22.3871 13.1926 22.5799 12.8993L26.2709 7.28034L32.9864 7.59731C33.3364 7.61366 33.6812 7.50189 33.9549 7.28249L39.2016 3.07888L45.4905 5.45561C45.8187 5.5796 46.1808 5.5796 46.5089 5.45561L52.7978 3.07888L58.0445 7.28249C58.3182 7.50207 58.6628 7.61384 59.013 7.59731L65.7285 7.28034L69.4194 12.8993C69.6119 13.1924 69.905 13.4055 70.2435 13.4981L76.7282 15.2718L78.5019 21.7565C78.5945 22.0949 78.8074 22.3877 79.1006 22.5805L84.7197 26.2715L84.4027 32.987C84.3862 33.3375 84.4981 33.6818 84.7175 33.9555L88.9211 39.2022L86.5444 45.4911C86.4206 45.8194 86.4206 46.1814 86.5446 46.5095Z" fill="#29497A"/>
<path d="M73.067 21.1266C72.7085 20.7363 72.3367 20.3482 71.9614 19.973C71.586 19.5978 71.198 19.2259 70.8078 18.8674C70.2218 18.3294 69.3106 18.3682 68.7724 18.9544C68.2345 19.5403 68.2733 20.4517 68.8594 20.9897C69.2193 21.3203 69.5776 21.6635 69.9241 22.01C70.2703 22.3562 70.6137 22.7147 70.9445 23.0748C71.2286 23.3842 71.6167 23.5411 72.0061 23.5411C72.3542 23.5411 72.7033 23.4157 72.9798 23.1618C73.566 22.624 73.605 21.7126 73.067 21.1266Z" fill="#29497A"/>
<path d="M65.6923 14.9365C58.7455 10.5108 50.3818 8.54395 42.1426 9.39693C33.7826 10.263 25.8998 14.0189 19.9456 19.9728C13.393 26.5255 9.57784 35.2302 9.20301 44.4836C8.83052 53.6825 11.8773 62.6137 17.7824 69.6316C18.0672 69.9701 18.4747 70.1446 18.8855 70.1446C19.2129 70.1446 19.542 70.0336 19.8121 69.8064C20.4207 69.2941 20.4991 68.3855 19.987 67.7769C14.5458 61.3101 11.7384 53.0793 12.0816 44.6004C12.427 36.0721 15.9431 28.0494 21.9826 22.0101C27.4702 16.5223 34.7353 13.0606 42.4393 12.2626C50.0356 11.4756 57.7434 13.2884 64.1441 17.3663C64.8152 17.7937 65.7054 17.5964 66.1329 16.9255C66.5605 16.2543 66.363 15.364 65.6923 14.9365Z" fill="#29497A"/>
<path d="M76.9981 26.2421C76.5706 25.571 75.6797 25.3737 75.0091 25.8011C74.338 26.2286 74.1409 27.1191 74.5684 27.7899C78.6462 34.1907 80.4587 41.899 79.672 49.4947C78.874 57.1986 75.4124 64.4636 69.9247 69.9516C63.8852 75.9909 55.8625 79.5072 47.3344 79.8526C38.8569 80.1972 30.6245 77.3885 24.1579 71.9476C23.5493 71.4353 22.6407 71.5136 22.1284 72.1224C21.6161 72.731 21.6944 73.6397 22.3032 74.152C28.9375 79.734 37.2803 82.7621 45.944 82.7619C46.4451 82.7619 46.9482 82.7516 47.4514 82.7313C56.7047 82.3567 65.4093 78.5416 71.9622 71.9889C77.9163 66.0348 81.6723 58.1517 82.5381 49.7917C83.3912 41.552 81.4238 33.1886 76.9981 26.2421Z" fill="#29497A"/>
</g>
<defs>
<clipPath id="clip0">
<rect width="92" height="92" fill="white"/>
</clipPath>
</defs>
</svg>
