<svg width="90" height="90" viewBox="0 0 90 90" fill="none" xmlns="http://www.w3.org/2000/svg">
<g clip-path="url(#clip0)">
<path d="M81.1133 15.5007L53.6376 0.622602C51.0312 -0.789193 47.4474 0.296803 46.0356 2.90319L29.9629 32.7681H10.415C7.91719 32.7681 5.9624 34.7229 5.9624 37.2207V45.0398V85.5475C5.9624 88.0452 7.91719 90.0001 10.415 90.0001H72.8597C75.3575 90.0001 77.3123 88.0452 77.3123 85.5475V74.2531H79.1585C80.1359 74.2531 80.8961 73.4929 80.8961 72.5155V59.5922C80.8961 58.6148 80.1359 57.8546 79.1585 57.8546H77.3123V45.1484C77.3123 43.085 75.7919 41.2388 73.8371 40.8044L83.3939 23.1027C84.8057 20.3877 83.8283 17.0211 81.1133 15.5007ZM61.5654 8.87617L44.4067 40.6958H39.5197L57.873 6.92138L61.5654 8.87617ZM49.185 4.53219C49.728 3.55479 51.0312 3.12039 52.0086 3.66339L54.7236 5.18378L35.6101 40.6958H29.6371L49.185 4.53219ZM9.32899 37.1121C9.32899 36.7863 9.76339 36.2433 10.3064 36.2433H28.0081L25.6189 40.5872H10.3064C9.98059 40.5872 9.65479 40.5872 9.32899 40.6958V37.1121ZM73.7285 85.5475C73.7285 86.0905 73.2941 86.5249 72.7511 86.5249H10.3064C9.76339 86.5249 9.32899 86.0905 9.32899 85.5475V45.1484C9.32899 44.6054 9.76339 44.171 10.3064 44.171H26.7049H33.6553H46.3614H70.7963H72.6425C73.1855 44.171 73.6199 44.6054 73.6199 45.1484V57.8546H66.9954C64.0632 57.8546 61.7826 60.2438 61.7826 63.0674V69.0403C61.7826 71.9725 64.1718 74.2531 66.9954 74.2531H73.7285V85.5475ZM77.2037 61.3298H77.3123V70.7779H77.2037H66.9954C66.018 70.7779 65.2578 70.0177 65.2578 69.0403V63.0674C65.2578 62.09 66.018 61.3298 66.9954 61.3298H77.2037ZM80.2445 21.3651L69.819 40.6958H48.3162L64.6062 10.6138L79.3757 18.6501C80.4617 19.0845 80.7875 20.3877 80.2445 21.3651Z" fill="#29497A"/>
<path d="M73.6199 19.7361L72.7511 19.3017C70.5791 18.1071 67.6469 18.9759 66.4523 21.1479L65.3663 23.2113C64.8233 24.2973 64.6061 25.6005 65.0405 26.7951C65.3663 27.9897 66.2351 28.9671 67.3211 29.5101L68.1899 29.9445C68.8415 30.2703 69.6017 30.4875 70.3619 30.4875C72.0995 30.4875 73.6199 29.5101 74.4887 28.0983L75.5747 26.0349C76.6607 23.7543 75.7919 20.9307 73.6199 19.7361ZM72.4253 24.4059L71.3393 26.4693C71.0135 27.0123 70.2533 27.2295 69.7103 26.9037L68.8415 26.3607C68.6243 26.2521 68.4071 25.9263 68.2985 25.7091C68.1899 25.3833 68.1899 25.0575 68.4071 24.8403L69.4931 22.7769C69.7103 22.4511 70.1447 22.1253 70.5791 22.1253C70.7963 22.1253 70.9049 22.1253 71.1221 22.2339L71.9909 22.6683C72.4253 23.1027 72.6425 23.7543 72.4253 24.4059Z" fill="#29497A"/>
<circle cx="33" cy="57" r="33" fill="#29497A" fill-opacity="0.5"/>
</g>
<defs>
<clipPath id="clip0">
<rect width="90" height="90" fill="white"/>
</clipPath>
</defs>
</svg>
