<svg width="97" height="97" viewBox="0 0 97 97" fill="none" xmlns="http://www.w3.org/2000/svg">
<path d="M78.3076 61.9124C82.0135 59.6519 84.4931 55.5709 84.4931 50.9213V41.0697C84.4931 34.6503 79.7666 29.3147 73.6113 28.3582V18.8431C73.6113 18.0609 72.9772 17.4268 72.1949 17.4268H57.021V11.7415C57.021 6.68495 52.9072 2.57117 47.8507 2.57117H25.7607C20.7042 2.57117 16.5904 6.68495 16.5904 11.7415V17.4268H1.41635C0.6341 17.4268 0 18.0609 0 18.8431V29.6832V69.1308C0 69.913 0.6341 70.5471 1.41635 70.5471H13.9081C14.6904 70.5471 15.3245 69.913 15.3245 69.1308C15.3245 68.3487 14.6904 67.7144 13.9081 67.7144H2.8327V39.1129C5.29067 42.8436 9.16934 45.5802 13.7475 46.5088V48.0632C13.7475 50.5623 15.7807 52.5953 18.2798 52.5953C20.7788 52.5953 22.8121 50.5621 22.8121 48.0632V46.8615H33.753C34.5352 46.8615 35.1693 46.2274 35.1693 45.4452C35.1693 44.6629 34.5352 44.0288 33.753 44.0288H22.8121V40.5614C22.8121 39.7792 22.1779 39.1451 21.3957 39.1451H15.1636C14.3814 39.1451 13.7473 39.7792 13.7473 40.5614V43.6113C7.42353 42.0606 2.83251 36.3344 2.83251 29.6832V20.2593H18.0064H23.075H50.5361H55.6045H70.7785V28.2328C70.6942 28.2383 70.6115 28.2483 70.5275 28.2555C70.4307 28.2639 70.3337 28.2712 70.2375 28.2817C70.1202 28.2944 70.0039 28.3103 69.8876 28.3262C69.7945 28.3389 69.7009 28.3504 69.6085 28.365C69.4903 28.3838 69.3732 28.4061 69.2561 28.4281C69.1673 28.4448 69.0776 28.4599 68.9892 28.4785C68.8685 28.5039 68.7495 28.5329 68.6301 28.5617C68.547 28.5818 68.4632 28.5998 68.3806 28.6214C68.2539 28.6543 68.1291 28.6918 68.004 28.7286C67.9307 28.7502 67.8564 28.7697 67.7839 28.7924C67.6429 28.8366 67.504 28.8854 67.3652 28.9345C67.3099 28.954 67.2536 28.9713 67.1985 28.9917C66.8106 29.1346 66.4314 29.2952 66.0621 29.4731C66.0237 29.4917 65.9863 29.5122 65.9482 29.5311C65.8033 29.6027 65.6593 29.6751 65.5176 29.7518C65.4598 29.7831 65.404 29.817 65.3467 29.849C65.2266 29.9166 65.1063 29.9841 64.9885 30.0551C64.9243 30.094 64.8619 30.1355 64.7985 30.1752C64.6901 30.2434 64.5817 30.3113 64.4754 30.3825C64.409 30.427 64.3443 30.474 64.2788 30.5201C64.1784 30.5903 64.0776 30.6602 63.9791 30.7332C63.9124 30.7826 63.8474 30.8344 63.7817 30.8849C63.6873 30.9579 63.5926 31.0308 63.5003 31.106C63.4344 31.1598 63.3702 31.2155 63.3054 31.2707C63.2163 31.3466 63.1271 31.4224 63.04 31.5007C62.9755 31.5584 62.9128 31.6181 62.8496 31.6772C62.7651 31.7562 62.6811 31.835 62.5989 31.9161C62.5364 31.9777 62.4754 32.0408 62.4142 32.1037C62.3344 32.1857 62.2552 32.2678 62.1778 32.3517C62.1175 32.4169 62.0588 32.4832 62 32.5497C61.9248 32.6345 61.8504 32.7198 61.7774 32.8067C61.7199 32.8753 61.6636 32.9447 61.6075 33.0144C61.5366 33.1023 61.4667 33.1906 61.3985 33.2802C61.3438 33.352 61.2902 33.4242 61.2369 33.4971C61.1706 33.5877 61.1055 33.6792 61.0416 33.7714C60.9901 33.8461 60.9393 33.9213 60.8891 33.9971C60.8273 34.0905 60.7669 34.1848 60.7076 34.2797C60.6593 34.3572 60.6115 34.4349 60.5648 34.5135C60.5075 34.6096 60.452 34.7068 60.3973 34.8043C60.3524 34.8845 60.308 34.9646 60.2647 35.0459C60.2122 35.1446 60.1614 35.2446 60.1114 35.3449C60.0703 35.4275 60.0292 35.5099 59.9898 35.5934C59.9418 35.6948 59.8962 35.7973 59.8507 35.9003C59.8134 35.9852 59.7759 36.0697 59.7402 36.1553C59.6972 36.2593 59.6563 36.3645 59.616 36.47C59.5828 36.5564 59.5491 36.6428 59.5176 36.7303C59.4792 36.8376 59.4434 36.9459 59.4078 37.0543C59.379 37.1422 59.3492 37.2293 59.3223 37.3178C59.2888 37.4281 59.2583 37.5395 59.2276 37.6511C59.203 37.7399 59.1776 37.8282 59.1548 37.9178C59.126 38.0315 59.101 38.1465 59.0753 38.2613C59.0554 38.3503 59.0342 38.439 59.016 38.5286C58.9919 38.6476 58.9724 38.7677 58.9516 38.8878C58.9366 38.9752 58.9199 39.0619 58.9067 39.1498C58.8875 39.2766 58.8733 39.4046 58.858 39.5323C58.8479 39.6153 58.8358 39.6975 58.8277 39.7809C58.8134 39.9226 58.8045 40.0655 58.7951 40.2083C58.7903 40.2795 58.7829 40.3498 58.7793 40.4212C58.7685 40.6359 58.7629 40.8521 58.7629 41.0694V43.8375C58.1053 43.9456 57.442 44.0082 56.7785 44.0245V40.5614C56.7785 39.7792 56.1444 39.1451 55.3622 39.1451H49.1303C48.3481 39.1451 47.714 39.7792 47.714 40.5614V44.0288H38.4724C37.6904 44.0288 37.0561 44.6629 37.0561 45.4452C37.0561 46.2272 37.6902 46.8615 38.4724 46.8615H47.714V48.0632C47.714 50.5623 49.7472 52.5953 52.2461 52.5953C54.7451 52.5953 56.7783 50.5621 56.7783 48.0632V46.8562C57.4412 46.8428 58.1038 46.7905 58.7627 46.7001V50.9213C58.7627 51.1361 58.7684 51.3506 58.779 51.5639C58.7831 51.6471 58.7913 51.7291 58.797 51.8119C58.8059 51.9409 58.8138 52.07 58.8265 52.198C58.8368 52.3007 58.8512 52.4019 58.8637 52.504C58.8769 52.6103 58.8887 52.7169 58.9042 52.823C58.9212 52.9367 58.9421 53.0491 58.962 53.1616C58.9783 53.2537 58.993 53.3463 59.0114 53.4378C59.0359 53.5598 59.0639 53.6805 59.0918 53.8012C59.1103 53.8815 59.1274 53.962 59.1475 54.0422C59.1798 54.1719 59.2162 54.3002 59.2524 54.4281C59.2721 54.4969 59.2903 54.566 59.3111 54.6342C59.353 54.7731 59.3987 54.9101 59.4453 55.0468C59.464 55.102 59.4818 55.1575 59.5014 55.2124C59.5548 55.3627 59.6118 55.5112 59.6705 55.6588C59.6861 55.6976 59.7007 55.7368 59.7166 55.7755C59.784 55.9403 59.8554 56.1028 59.9293 56.2643C59.9382 56.2836 59.9468 56.3029 59.9557 56.3222C61.0331 58.6415 62.7793 60.5893 64.9483 61.9124C61.0134 63.0306 57.432 65.0541 54.4803 67.7146H18.6287C17.8465 67.7146 17.2124 68.3487 17.2124 69.131C17.2124 69.9132 17.8465 70.5473 18.6287 70.5473H51.7734C48.335 74.7359 46.2567 79.9561 46.2567 85.5132V93.0119C46.2567 93.794 46.8908 94.4283 47.673 94.4283H58.4609C59.2431 94.4283 59.8772 93.7942 59.8772 93.0119C59.8772 92.2297 59.2431 91.5956 58.4609 91.5956H49.0892V85.513C49.0892 79.8561 51.503 74.447 55.886 70.2827C55.9298 70.2412 55.9745 70.2006 56.0186 70.1595C56.1882 70.0009 56.3602 69.845 56.5341 69.6916C56.5478 69.6794 56.5614 69.6673 56.5749 69.6556C56.918 69.3541 57.2698 69.0637 57.629 68.7829C57.6942 68.7322 57.7599 68.6824 57.8255 68.6323C57.9215 68.5588 58.0183 68.4863 58.1155 68.4143C58.2114 68.3434 58.3072 68.2726 58.404 68.2032C58.445 68.1737 58.4865 68.1452 58.5276 68.1161C60.5401 66.6937 62.7613 65.5903 65.0825 64.8505L67.382 69.3182L64.3099 82.6543C64.1952 83.1516 64.3572 83.6723 64.7339 84.0171L70.6723 89.4521C70.9428 89.6999 71.2855 89.8236 71.6284 89.8236C71.9713 89.8236 72.3139 89.6997 72.5848 89.4521L78.5232 84.0171C78.8997 83.6724 79.0618 83.1518 78.9472 82.6543L75.875 69.3182L78.1746 64.8505C81.5664 65.9315 84.7458 67.7883 87.3709 70.2827C91.7537 74.4468 94.1677 79.8559 94.1677 85.5128V91.5952H63.1817C62.3996 91.5952 61.7653 92.2293 61.7653 93.0115C61.7653 93.7936 62.3994 94.4279 63.1817 94.4279H95.5836C96.3657 94.4279 97 93.7938 97 93.0115V85.5128C97 74.5705 88.9426 64.9342 78.3076 61.9124ZM16.5796 45.3125V41.9776H16.5798H19.979V45.445V48.063C19.979 49.0003 19.2164 49.7626 18.2792 49.7626C17.342 49.7626 16.5794 49.0001 16.5794 48.063V45.3125H16.5796ZM49.1197 17.4268H24.4914V12.7567C24.4914 11.4652 25.5421 10.4143 26.8338 10.4143H46.7775C48.069 10.4143 49.1199 11.465 49.1199 12.7567V17.4268H49.1197ZM54.1881 17.4268H51.9522V12.7567C51.9522 9.90338 49.6308 7.58182 46.7773 7.58182H26.8336C23.9802 7.58182 21.6587 9.90319 21.6587 12.7567V17.4269H19.4227V11.7415C19.4227 8.2468 22.2659 5.40368 25.7605 5.40368H47.8504C51.345 5.40368 54.1881 8.2468 54.1881 11.7415V17.4268ZM53.9468 45.4452V48.0634C53.9468 49.0006 53.1842 49.763 52.247 49.763C51.3098 49.763 50.5474 49.0004 50.5474 48.0634V45.4454V41.9778H53.9466V45.4452H53.9468ZM61.6022 41.0637C61.6022 35.708 65.823 31.3197 71.1131 31.0507C71.2838 31.042 71.4555 31.0376 71.6283 31.0376C71.7895 31.0376 71.9498 31.0424 72.1093 31.0499C72.1148 31.0501 72.1199 31.0503 72.1254 31.0505C72.1276 31.0507 72.1297 31.0503 72.132 31.0505C72.1358 31.0507 72.1398 31.0505 72.1436 31.0507C77.4333 31.3197 81.6543 35.708 81.6543 41.0637V44.4373C77.0856 43.5897 75.2369 38.9445 75.1547 38.7319C74.9592 38.216 74.4803 37.864 73.9299 37.8246C73.3792 37.7863 72.8548 38.0722 72.5874 38.5548C72.459 38.787 69.5052 43.958 61.602 44.521V41.0637H61.6022ZM76.0012 82.4853L71.6283 86.4875L67.2553 82.4853L70.0056 70.5473H73.2509L76.0012 82.4853ZM67.9026 64.14C68.0262 64.1171 68.1501 64.0963 68.274 64.0752C68.3619 64.0604 68.4502 64.0459 68.5381 64.0322C68.6927 64.008 68.8475 63.9851 69.0024 63.964C69.2046 63.9369 69.4067 63.9125 69.6091 63.8911C69.6905 63.8824 69.7716 63.8742 69.8531 63.8665C69.8728 63.8646 69.8923 63.8629 69.912 63.861C70.1221 63.8414 70.3326 63.8251 70.5429 63.8117C70.6276 63.8064 70.7119 63.8005 70.7967 63.7962C70.7971 63.7962 70.7975 63.7962 70.7979 63.7962C70.9686 63.7873 71.1393 63.7827 71.31 63.7778C71.4161 63.7804 71.5214 63.7859 71.6284 63.7859C71.7353 63.7859 71.8406 63.7804 71.9467 63.7778C72.1176 63.7827 72.2885 63.7873 72.4596 63.7962C72.5143 63.799 72.5691 63.8013 72.6238 63.8047C72.872 63.8197 73.1198 63.8396 73.368 63.8627C73.4604 63.8714 73.5531 63.8808 73.6455 63.8907C73.8511 63.9125 74.0567 63.9373 74.2618 63.9648C74.4134 63.9854 74.565 64.008 74.7161 64.0317C74.8054 64.0455 74.8948 64.0604 74.984 64.0752C75.1074 64.0961 75.2309 64.1167 75.354 64.1396L73.5146 67.7144H69.7426L67.9026 64.14ZM72.2148 60.935C72.1852 60.9347 72.1561 60.9333 72.1265 60.9347C72.0911 60.9364 72.0557 60.9386 72.0202 60.9411C72.0094 60.9419 71.9988 60.9424 71.9882 60.943C71.8747 60.94 71.7616 60.9356 71.6478 60.9341C71.6349 60.9341 71.6218 60.9341 71.6091 60.9341C71.4953 60.9356 71.382 60.94 71.2685 60.943C66.0998 60.7577 61.8689 56.5395 61.6088 51.4207C61.6007 51.2553 61.5961 51.0888 61.5961 50.9213V47.3594C68.0002 46.9669 71.7673 43.9515 73.6257 41.8757C74.9344 43.9193 77.4706 46.7596 81.6605 47.3077V50.9215C81.6605 56.2561 77.4746 60.6302 72.2148 60.935Z" fill="#29497A"/>
<circle cx="49" cy="49" r="33" fill="#29497A" fill-opacity="0.5"/>
</svg>
